<?xml version="1.0" encoding="UTF-8" standalone="no"?>
<svg
   width="781.10272mm"
   height="781.10016mm"
   viewBox="0 0 781.10272 781.10015"
   version="1.1"
   id="svg68"
   sodipodi:docname="svgtest1.svg"
   inkscape:version="1.1.2 (0a00cf5339, 2022-02-04)"
   xmlns:inkscape="http://www.inkscape.org/namespaces/inkscape"
   xmlns:sodipodi="http://sodipodi.sourceforge.net/DTD/sodipodi-0.dtd"
   xmlns="http://www.w3.org/2000/svg"
   xmlns:svg="http://www.w3.org/2000/svg">
  <defs
     id="defs72" />
  <sodipodi:namedview
     id="namedview70"
     pagecolor="#ffffff"
     bordercolor="#666666"
     borderopacity="1.0"
     inkscape:pageshadow="2"
     inkscape:pageopacity="0.0"
     inkscape:pagecheckerboard="0"
     inkscape:document-units="mm"
     showgrid="false"
     inkscape:zoom="0.24391004"
     inkscape:cx="1344.7581"
     inkscape:cy="4095.7724"
     inkscape:window-width="1274"
     inkscape:window-height="2052"
     inkscape:window-x="1280"
     inkscape:window-y="50"
     inkscape:window-maximized="1"
     inkscape:current-layer="svg68" />
  <path
     d="m 477.13831,303.96481 v 0 a 122.45,122.45 0 0 0 -94.3987,-35.6153 122.45,122.45 0 0 0 15.6271,244.4009 122.45,122.45 0 0 0 78.7716,-208.7856 v 0 a 122.45,122.45 0 0 0 -94.3987,-35.6153 122.45,122.45 0 0 0 15.6271,244.4009 122.45,122.45 0 0 0 78.7716,-208.7856 z"
     stroke="#ff0000"
     stroke-width="0.1 mm"
     fill="none"
     id="path2" />
  <path
     d="m 327.54371,182.33991 v 0 a 19.9501,19.9501 0 0 0 -1.3732,-26.6927 l -50.1997,-50.1997 a 19.9501,19.9501 0 0 0 -22.6657,-3.9148 319.95,319.95 0 0 0 0,578.0345 19.9502,19.9502 0 0 0 10.7402,1.8093 19.9502,19.9502 0 0 0 11.9255,-5.724 l 50.1997,-50.1998 a 19.9501,19.9501 0 0 0 0,-28.2146 l -192.5117,-192.5118 a 20.05,20.05 0 0 1 0.001,-28.3538 l 192.5107,-192.5106 a 19.9499,19.9499 0 0 0 1.3732,-1.522 v 0 a 19.9501,19.9501 0 0 0 -1.3732,-26.6927 l -50.1997,-50.1997 a 19.9501,19.9501 0 0 0 -22.6657,-3.9148 319.95,319.95 0 0 0 0,578.0345 19.9502,19.9502 0 0 0 10.7402,1.8093 19.9502,19.9502 0 0 0 11.9255,-5.724 l 50.1997,-50.1998 a 19.9501,19.9501 0 0 0 0,-28.2146 l -192.5117,-192.5118 a 20.05,20.05 0 0 1 0.001,-28.3538 l 192.5107,-192.5106 a 19.9499,19.9499 0 0 0 1.3732,-1.522 z"
     stroke="#ff0000"
     stroke-width="0.1 mm"
     fill="none"
     id="path4" />
  <path
     d="m 390.47871,119.40491 v 0 l 256.9687,256.9687 a 20.05,20.05 0 0 1 -10e-4,28.3539 l -295.373,295.3729 a 4.9501,4.9501 0 0 0 2.9508,8.4208 319.948,319.948 0 0 0 45.1912,1.8329 319.95,319.95 0 0 0 310.1296,-329.8619 319.95,319.95 0 0 0 -330.2452,-309.721395 319.9412,319.9412 0 0 0 -25.0756,1.808 4.9501,4.9501 0 0 0 -2.9508,8.4208 l 38.4053,38.405295 v 0 l 256.9687,256.9687 a 20.05,20.05 0 0 1 -10e-4,28.3539 l -295.373,295.3729 a 4.9501,4.9501 0 0 0 2.9508,8.4208 319.948,319.948 0 0 0 45.1912,1.8329 319.95,319.95 0 0 0 310.1296,-329.8619 319.95,319.95 0 0 0 -330.2452,-309.721395 319.9412,319.9412 0 0 0 -25.0756,1.808 4.9501,4.9501 0 0 0 -2.9508,8.4208 z"
     stroke="#ff0000"
     stroke-width="0.1 mm"
     fill="none"
     id="path6" />
  <path
     d="m 390.44611,0.50001462 v 0 A 390.05,390.05 0 0 1 401.69181,780.44091 390.05,390.05 0 0 1 0.66220852,401.68861 390.05,390.05 0 0 1 379.41451,0.65911462 a 390.0516,390.0516 0 0 1 11.0316,-0.1591 A 390.05,390.05 0 0 1 401.69181,780.44091 390.05,390.05 0 0 1 0.66220852,401.68861 390.05,390.05 0 0 1 379.41451,0.65911462 a 390.0516,390.0516 0 0 1 11.0316,-0.1591 z"
     stroke="#ff0000"
     stroke-width="0.1 mm"
     fill="none"
     id="path8" />
  <path
     d="m 377.52911,643.84241 -1.842,1.842 -0.2106,0.1592 -0.2347,0.0867 -0.102,0.0161 -0.1069,0.005 -0.2704,-0.0364 -0.2279,-0.1031 -0.0803,-0.0582 -0.0757,-0.0682 -6.1508,-6.1509 -0.5693,-0.5179 -0.5549,-0.4082 -0.5428,-0.3105 -0.5338,-0.2227 -0.5285,-0.1422 -0.1366,-0.0245 -0.137,-0.0195 -0.4687,-0.0218 -0.4572,0.0514 -0.4513,0.1242 -0.451,0.2003 -0.455,0.2828 -0.3389,0.2656 -0.3349,0.3105 -0.3995,0.4509 -0.3066,0.4541 -0.2237,0.4597 -0.1477,0.4689 -0.0757,0.4825 -0.0114,0.2873 0.0124,0.2929 0.0797,0.5284 0.1524,0.5209 0.2278,0.5179 0.3086,0.5187 0.397,0.5229 0.2016,0.2283 0.2175,0.2265 6.1509,6.1509 0.1584,0.2098 0.0862,0.2343 0.016,0.1026 0.005,0.1075 -0.0364,0.2692 -0.1033,0.2277 -0.0584,0.0805 -0.0687,0.0761 -1.8427,1.8427 -0.2103,0.1588 -0.2344,0.0865 -0.1027,0.0161 -0.1076,0.005 -0.27,-0.0369 -0.228,-0.1037 -0.0804,-0.0584 -0.0759,-0.0685 -15.913,-15.9131 -0.1592,-0.2106 -0.0868,-0.2346 -0.016,-0.1021 -0.006,-0.1069 0.0364,-0.2701 0.1032,-0.228 0.0585,-0.0808 0.0687,-0.0761 1.8427,-1.8427 0.2098,-0.1584 0.2338,-0.0859 0.1033,-0.0159 0.1082,-0.005 0.2706,0.0369 0.2285,0.1037 0.0811,0.0588 0.0764,0.0689 5.1872,5.1873 0.0378,-0.7281 0.1108,-0.7301 0.1263,-0.53 0.1647,-0.5301 0.2336,-0.5621 0.3127,-0.5611 0.3982,-0.5633 0.3106,-0.3708 0.3462,-0.3663 0.6978,-0.6464 0.6686,-0.5221 0.6421,-0.4107 0.6187,-0.3108 0.3054,-0.1224 0.692,-0.2154 0.6689,-0.1329 0.6499,-0.0554 0.4139,0.004 0.4108,0.0346 0.666,0.1178 0.655,0.1898 0.6477,0.2637 0.6948,0.3718 0.773,0.5084 0.7514,0.5816 0.4534,0.3968 0.4426,0.4238 6.5115,6.5116 0.1584,0.2097 0.0863,0.2344 0.016,0.1026 0.005,0.1075 -0.0369,0.2699 -0.1038,0.2281 -0.0584,0.0804 z"
     stroke="#0000ff"
     stroke-width="0.1 mm"
     fill="none"
     id="path10" />
  <path
     d="m 384.60881,630.90381 1.4789,-1.4789 0.2095,-0.158 0.2336,-0.0857 0.1038,-0.0159 0.1089,-0.005 0.2704,0.0369 0.2287,0.1038 0.0815,0.059 0.0768,0.0694 1.6115,1.6115 0.16,0.2114 0.0876,0.2356 0.0165,0.1032 0.006,0.108 -0.0352,0.2696 -0.1023,0.2276 -0.0586,0.0812 -0.069,0.0766 -1.7946,1.7946 -0.6968,0.6454 -0.675,0.5277 -0.6554,0.4216 -0.6384,0.3253 -0.6245,0.2375 -0.6141,0.1565 -0.7023,0.0859 -0.573,-0.007 -0.5712,-0.0795 -0.5739,-0.1537 -0.5809,-0.2317 -0.5919,-0.3152 -0.6062,-0.4064 -0.6235,-0.507 -0.485,-0.4574 -5.2126,-5.2126 -1.5997,1.5997 -0.2098,0.1585 -0.2343,0.0862 -0.1033,0.0161 -0.1084,0.005 -0.271,-0.0375 -0.2291,-0.1042 -0.0814,-0.059 -0.0766,-0.0692 -1.6115,-1.6115 -0.1599,-0.2113 -0.0873,-0.2352 -0.0164,-0.103 -0.006,-0.1079 0.0353,-0.2706 0.1022,-0.2279 0.0586,-0.0815 0.0691,-0.0766 1.5997,-1.5997 -3.9428,-3.9428 -0.1587,-0.2101 -0.0862,-0.234 -0.0159,-0.1026 -0.005,-0.1075 0.0369,-0.2699 0.1037,-0.2281 0.0584,-0.0804 0.0685,-0.0758 1.842,-1.842 0.2106,-0.1591 0.2346,-0.0868 0.1021,-0.0161 0.1069,-0.005 0.2694,0.0358 0.2276,0.1028 0.0809,0.0585 0.0763,0.0689 3.9428,3.9427 3.1275,-3.1275 0.2091,-0.1577 0.2339,-0.0857 0.1038,-0.016 0.109,-0.005 0.2704,0.0369 0.2287,0.1038 0.0815,0.0591 0.0768,0.0693 1.6115,1.6115 0.16,0.2114 0.0876,0.2356 0.0165,0.1032 0.006,0.108 -0.0358,0.2706 -0.1026,0.2278 -0.0583,0.0807 -0.0685,0.0759 -3.1275,3.1275 5.1242,5.1242 0.3867,0.3353 0.3801,0.2355 0.377,0.1492 0.4527,0.0779 0.3089,-0.0195 0.3352,-0.0955 0.371,-0.1838 0.4163,-0.2901 z"
     stroke="#0000ff"
     stroke-width="0.1 mm"
     fill="none"
     id="path12" />
  <path
     d="m 395.26591,620.24671 1.4789,-1.4789 0.2095,-0.1581 0.2336,-0.0856 0.1039,-0.0159 0.1089,-0.005 0.2703,0.0369 0.2287,0.1038 0.0815,0.059 0.0768,0.0694 1.6116,1.6115 0.1599,0.2114 0.0876,0.2356 0.0166,0.1031 0.006,0.1081 -0.0353,0.2696 -0.1023,0.2276 -0.0586,0.0812 -0.069,0.0766 -1.7946,1.7946 -0.6968,0.6454 -0.675,0.5277 -0.6554,0.4216 -0.6384,0.3253 -0.6245,0.2375 -0.6141,0.1565 -0.7023,0.0859 -0.573,-0.007 -0.5711,-0.0795 -0.574,-0.1538 -0.5809,-0.2316 -0.5919,-0.3152 -0.6062,-0.4064 -0.6235,-0.5071 -0.485,-0.4573 -5.2126,-5.2126 -1.5996,1.5997 -0.2099,0.1585 -0.2343,0.0862 -0.1033,0.0161 -0.1084,0.005 -0.271,-0.0375 -0.2291,-0.1042 -0.0814,-0.059 -0.0766,-0.0692 -1.6115,-1.6116 -0.1599,-0.2112 -0.0873,-0.2352 -0.0163,-0.103 -0.006,-0.1079 0.0353,-0.2706 0.1022,-0.228 0.0586,-0.0814 0.0691,-0.0766 1.5997,-1.5997 -3.9428,-3.9428 -0.1587,-0.2101 -0.0862,-0.234 -0.0159,-0.1026 -0.005,-0.1075 0.0369,-0.2699 0.1037,-0.2281 0.0584,-0.0804 0.0685,-0.0758 1.842,-1.842 0.2106,-0.1592 0.2347,-0.0867 0.102,-0.0161 0.1069,-0.005 0.2694,0.0358 0.2276,0.1028 0.0809,0.0585 0.0763,0.0688 3.9428,3.9428 3.1275,-3.1275 0.2091,-0.1577 0.2339,-0.0857 0.1039,-0.016 0.1089,-0.005 0.2704,0.0369 0.2287,0.1038 0.0815,0.0591 0.0768,0.0693 1.6115,1.6115 0.16,0.2114 0.0876,0.2356 0.0165,0.1032 0.006,0.108 -0.0358,0.2706 -0.1026,0.2278 -0.0583,0.0807 -0.0685,0.0759 -3.1275,3.1275 5.1242,5.1242 0.3867,0.3353 0.3801,0.2354 0.377,0.1493 0.4527,0.0779 0.3089,-0.0195 0.3352,-0.0955 0.371,-0.1838 0.4163,-0.2901 z"
     stroke="#0000ff"
     stroke-width="0.1 mm"
     fill="none"
     id="path14" />
  <path
     d="m 406.88351,613.96871 -0.6833,0.1948 -0.5573,0.0925 -0.5319,0.0375 -0.453,-0.004 5.1549,5.1549 0.1583,0.2097 0.0859,0.2339 0.0158,0.1024 0.005,0.1074 -0.0358,0.2694 -0.1028,0.2276 -0.0586,0.081 -0.0688,0.0763 -1.8427,1.8427 -0.2103,0.1588 -0.2344,0.0865 -0.1027,0.0161 -0.1076,0.005 -0.27,-0.0369 -0.228,-0.1037 -0.0804,-0.0584 -0.0759,-0.0685 -15.913,-15.913 -0.1592,-0.2107 -0.0868,-0.2346 -0.0161,-0.1021 -0.005,-0.1069 0.0364,-0.2701 0.1032,-0.228 0.0585,-0.0808 0.0687,-0.0761 1.8427,-1.8427 0.2067,-0.1553 0.2319,-0.0837 0.1089,-0.0156 0.1146,-0.004 0.2738,0.0418 0.2341,0.1087 0.0854,0.0622 0.0807,0.073 0.5808,0.5808 10e-4,-0.5785 0.0321,-0.4064 0.0954,-0.5692 0.1926,-0.6706 0.2454,-0.6065 0.431,-0.8022 0.3814,-0.5613 0.4879,-0.586 0.1607,-0.1724 0.1687,-0.1726 0.5786,-0.5272 0.5925,-0.4423 0.6078,-0.3636 0.4379,-0.2113 0.4499,-0.1768 0.729,-0.2172 0.7231,-0.1398 0.7206,-0.0655 0.7591,0.01 0.7665,0.086 0.7608,0.1586 0.7584,0.2327 0.6224,0.248 0.7474,0.3689 0.7063,0.4296 0.6682,0.4917 0.4714,0.405 0.8712,0.8239 0.8239,0.8712 0.5423,0.6459 0.4761,0.68 0.4127,0.7162 0.2641,0.5512 0.2988,0.7687 0.2201,0.7658 0.1447,0.7659 0.0624,0.6085 0.0108,0.7245 -0.062,0.7198 -0.1351,0.7188 -0.2264,0.7687 -0.26,0.6315 -0.3299,0.6097 -0.4029,0.5909 -0.3452,0.4236 -0.384,0.4102 -0.6271,0.5756 -0.5969,0.4513 -0.1342,0.0884 -0.1341,0.0834 -0.7112,0.3882 z"
     stroke="#0000ff"
     stroke-width="0.1 mm"
     fill="none"
     id="path16" />
  <path
     d="m 401.60301,601.34261 -0.5444,0.086 -0.5179,0.1553 -0.4964,0.2249 -0.479,0.2973 -0.6613,0.5624 -0.4162,0.4676 -0.329,0.4777 -0.2497,0.4898 -0.1763,0.505 -0.1301,0.7581 -0.002,0.5058 0.0709,0.4983 0.1444,0.4959 0.2216,0.4985 0.3053,0.5052 0.1549,0.2145 0.1694,0.2136 0.4549,0.5352 0.4116,0.4276 0.5177,0.4936 0.4451,0.3729 0.5183,0.3795 0.5127,0.2866 0.5099,0.2026 0.511,0.1252 0.5167,0.0519 0.1693,10e-4 0.1703,-0.006 0.5425,-0.0682 0.5138,-0.1377 0.4903,-0.2067 0.4713,-0.278 0.4558,-0.3542 0.125,-0.1135 0.1231,-0.1194 0.4209,-0.4723 0.334,-0.4828 0.255,-0.4953 0.1815,-0.511 0.1353,-0.7368 0.006,-0.4647 -0.0671,-0.4781 -0.1443,-0.4976 -0.2285,-0.5226 -0.3228,-0.5531 -0.2455,-0.3505 -0.2794,-0.3548 -0.5334,-0.6043 -0.8145,-0.7436 -0.6233,-0.4702 -0.5816,-0.3498 -0.545,-0.2446 -0.5136,-0.1523 -0.4882,-0.0699 -0.2356,-0.006 z"
     stroke="#0000ff"
     stroke-width="0.1 mm"
     fill="none"
     id="path18" />
  <path
     d="m 409.62031,588.71651 2.3771,2.377 0.1588,0.2103 0.0865,0.2344 0.016,0.1027 0.005,0.1076 -0.0364,0.2705 -0.1031,0.2278 -0.0582,0.0803 -0.0682,0.0757 -2.2555,2.2555 -0.2098,0.1583 -0.2343,0.0863 -0.1026,0.016 -0.1076,0.005 -0.2701,-0.0364 -0.228,-0.1032 -0.0808,-0.0585 -0.0761,-0.0686 -2.377,-2.377 -0.1588,-0.2103 -0.0865,-0.2345 -0.0161,-0.1027 -0.005,-0.1076 0.0363,-0.2704 0.1032,-0.2278 0.0581,-0.0803 0.0683,-0.0757 2.2555,-2.2555 0.2098,-0.1583 0.2343,-0.0863 0.1026,-0.016 0.1075,-0.005 0.2702,0.0363 0.228,0.1032 0.0807,0.0585 z"
     stroke="#0000ff"
     stroke-width="0.1 mm"
     fill="none"
     id="path20" />
  <path
     d="m 418.10561,597.20181 2.377,2.377 0.1589,0.2103 0.0865,0.2344 0.016,0.1027 0.005,0.1076 -0.0364,0.2704 -0.1031,0.2279 -0.0582,0.0803 -0.0683,0.0757 -2.2554,2.2554 -0.2098,0.1584 -0.2344,0.0863 -0.1026,0.016 -0.1075,0.005 -0.2701,-0.0364 -0.228,-0.1032 -0.0808,-0.0585 -0.0761,-0.0687 -2.377,-2.377 -0.1588,-0.2102 -0.0865,-0.2345 -0.0161,-0.1027 -0.005,-0.1076 0.0364,-0.2704 0.1031,-0.2279 0.0582,-0.0803 0.0683,-0.0756 2.2555,-2.2555 0.2098,-0.1584 0.2343,-0.0862 0.1026,-0.016 0.1075,-0.005 0.2702,0.0364 0.228,0.1032 0.0807,0.0585 z"
     stroke="#0000ff"
     stroke-width="0.1 mm"
     fill="none"
     id="path22" />
  <path
     d="m 413.46451,569.82431 1.7945,-1.7946 0.1917,-0.1402 0.2153,-0.0679 0.0618,-0.007 0.0639,-0.002 0.2409,0.0357 0.2004,0.1026 0.0467,0.0371 0.0447,0.0416 0.091,0.115 0.0787,0.1509 11.3911,27.7792 0.0983,0.3233 0.0453,0.5006 -0.0364,0.2655 -0.1117,0.2704 -0.1985,0.2837 -0.138,0.1496 -1.7212,1.7212 -0.1922,0.1408 -0.216,0.0685 -0.062,0.007 -0.064,0.002 -0.2406,-0.0364 -0.2006,-0.1032 -0.0463,-0.0369 -0.0444,-0.0413 -0.091,-0.1151 -0.0787,-0.1509 -11.4629,-27.7074 -0.0991,-0.3673 -0.0335,-0.4913 0.0436,-0.2688 0.1189,-0.2712 0.1349,-0.1974 z"
     stroke="#0000ff"
     stroke-width="0.1 mm"
     fill="none"
     id="path24" />
  <path
     d="m 420.88911,562.39971 1.7946,-1.7946 0.1916,-0.1402 0.2153,-0.0679 0.0619,-0.007 0.0639,-0.002 0.2408,0.0358 0.2004,0.1026 0.0467,0.0371 0.0448,0.0416 0.0909,0.115 0.0787,0.1509 11.3911,27.7792 0.0983,0.3233 0.0453,0.5006 -0.0363,0.2655 -0.1118,0.2703 -0.1985,0.2838 -0.1379,0.1495 -1.7212,1.7212 -0.1923,0.1409 -0.216,0.0684 -0.062,0.007 -0.064,0.002 -0.2406,-0.0363 -0.2005,-0.1032 -0.0464,-0.037 -0.0444,-0.0413 -0.091,-0.115 -0.0787,-0.1509 -11.4629,-27.7074 -0.099,-0.3673 -0.0335,-0.4913 0.0435,-0.2689 0.1189,-0.2712 0.1349,-0.1974 z"
     stroke="#0000ff"
     stroke-width="0.1 mm"
     fill="none"
     id="path26" />
  <path
     d="m 446.98571,574.38581 -1.8427,1.8427 -0.2103,0.1588 -0.2344,0.0865 -0.1027,0.0161 -0.1076,0.005 -0.27,-0.0369 -0.228,-0.1037 -0.0804,-0.0584 -0.0759,-0.0685 -15.913,-15.9131 -0.1592,-0.2106 -0.0868,-0.2346 -0.016,-0.1021 -0.006,-0.1069 0.0364,-0.2701 0.1032,-0.228 0.0585,-0.0808 0.0687,-0.0761 1.8427,-1.8427 0.2102,-0.1588 0.234,-0.0861 0.1026,-0.0159 0.1075,-0.005 0.2701,0.0364 0.228,0.1032 0.0808,0.0585 0.0761,0.0686 15.913,15.9131 0.1589,0.2103 0.0865,0.2344 0.016,0.1027 0.005,0.1076 -0.0358,0.2694 -0.1028,0.2276 -0.0585,0.081 z"
     stroke="#0000ff"
     stroke-width="0.1 mm"
     fill="none"
     id="path28" />
  <path
     d="m 441.04711,558.47031 -0.0131,-0.7551 0.0598,-0.7469 0.1324,-0.742 0.1354,-0.5148 0.1709,-0.5123 0.2872,-0.6742 0.3578,-0.6536 0.4314,-0.6359 0.5093,-0.6201 0.3659,-0.3859 0.6312,-0.5798 0.6428,-0.4926 0.6557,-0.4115 0.6705,-0.3353 0.3561,-0.1459 0.771,-0.2541 0.7615,-0.1749 0.7551,-0.0991 0.9212,-0.0212 0.7612,0.0637 0.7538,0.1361 0.7497,0.2094 0.892,0.3485 0.7337,0.3712 0.6945,0.4328 0.658,0.496 0.6949,0.6319 1.0875,1.0875 0.1583,0.2096 0.0859,0.2339 0.0158,0.1025 0.005,0.1074 -0.0364,0.2692 -0.1033,0.2277 -0.0584,0.0805 -0.0687,0.0761 -8.097,8.097 0.3831,0.3317 0.39,0.2428 0.2151,0.0983 0.2209,0.0769 0.4701,0.1006 0.4718,0.0268 0.1942,-0.01 0.1952,-0.022 0.4982,-0.1093 0.4962,-0.1837 0.1693,-0.0804 0.1684,-0.0891 0.5284,-0.3357 0.6594,-0.5616 0.5654,-0.6168 0.3875,-0.5259 0.083,-0.1357 0.0737,-0.1326 0.2495,-0.5526 0.1687,-0.6312 0.0849,-0.3989 0.0951,-0.2924 0.1423,-0.2443 0.2491,-0.2861 1.9398,-1.9398 0.2122,-0.1607 0.2413,-0.0918 0.1037,-0.0184 0.1089,-0.008 0.2593,0.0276 0.2095,0.0941 0.0893,0.0695 0.0811,0.085 0.1691,0.2499 0.1603,0.3735 0.0877,0.2902 0.0769,0.3317 0.0723,0.5382 0.008,0.6201 -0.0333,0.4528 -0.0645,0.4802 -0.1528,0.7137 -0.2401,0.7686 -0.2159,0.5524 -0.2562,0.568 -0.3591,0.6635 -0.4488,0.6747 -0.5466,0.6884 -0.6721,0.723 -0.6455,0.5941 -0.6555,0.5053 -0.6665,0.4228 -0.4772,0.251 -0.4879,0.2155 -0.7212,0.2492 -0.7205,0.1723 -0.7229,0.0983 -0.5273,0.0258 -0.5311,-0.0121 -0.7543,-0.0805 -0.7524,-0.1536 -0.7538,-0.2285 -0.5003,-0.1934 -0.4985,-0.2263 -0.7436,-0.4039 -0.7346,-0.4824 -0.7277,-0.5654 -0.8593,-0.7896 -0.6423,-0.6937 -0.5641,-0.7157 -0.4902,-0.7389 -0.4468,-0.819 -0.3388,-0.777 -0.257,-0.7704 -0.1795,-0.7667 z"
     stroke="#0000ff"
     stroke-width="0.1 mm"
     fill="none"
     id="path30" />
  <path
     d="m 445.09801,557.91551 0.0197,0.5137 0.0904,0.4752 0.0356,0.1212 0.0406,0.1195 0.2281,0.5208 0.2856,0.4522 5.4785,-5.4785 -0.4956,-0.3313 -0.4293,-0.2306 -0.4051,-0.158 -0.433,-0.0906 -0.1516,-0.0152 -0.1546,-0.008 -0.4318,0.0254 -0.4609,0.1011 -0.2116,0.0696 -0.2152,0.0848 -0.422,0.2183 -0.4601,0.3222 -0.2931,0.2475 -0.299,0.2837 -0.4507,0.5021 -0.3315,0.4755 -0.1178,0.2121 -0.0991,0.2119 -0.1892,0.5384 -0.103,0.5092 -0.0158,0.1543 z"
     stroke="#0000ff"
     stroke-width="0.1 mm"
     fill="none"
     id="path32" />
  <path
     d="m 476.12001,545.25151 -1.842,1.842 -0.2106,0.1592 -0.2347,0.0867 -0.1021,0.0161 -0.1068,0.005 -0.2705,-0.0363 -0.2278,-0.1032 -0.0803,-0.0582 -0.0757,-0.0682 -6.1508,-6.1509 -0.5693,-0.5179 -0.5549,-0.4082 -0.5429,-0.3105 -0.5338,-0.2226 -0.5284,-0.1423 -0.1366,-0.0245 -0.137,-0.0195 -0.4687,-0.0218 -0.4572,0.0514 -0.4513,0.1242 -0.451,0.2003 -0.455,0.2828 -0.339,0.2657 -0.3348,0.3104 -0.3995,0.4509 -0.3067,0.4541 -0.2236,0.4598 -0.1477,0.4688 -0.0757,0.4825 -0.0114,0.2873 0.0124,0.2929 0.0797,0.5284 0.1524,0.5209 0.2278,0.5179 0.3086,0.5188 0.3969,0.5228 0.2017,0.2284 0.2175,0.2264 6.1509,6.1509 0.1584,0.2098 0.0862,0.2343 0.016,0.1026 0.005,0.1075 -0.0364,0.2692 -0.1033,0.2277 -0.0585,0.0806 -0.0686,0.076 -1.8427,1.8427 -0.2103,0.1588 -0.2344,0.0865 -0.1027,0.0161 -0.1076,0.005 -0.2697,-0.037 -0.2282,-0.1038 -0.0809,-0.0587 -0.0763,-0.0689 -11.3152,-11.3153 -0.1597,-0.211 -0.087,-0.2348 -0.0161,-0.1022 -0.006,-0.107 0.0364,-0.2701 0.1032,-0.228 0.0585,-0.0808 0.0687,-0.0761 1.8427,-1.8427 0.2077,-0.1563 0.2325,-0.0844 0.1071,-0.0158 0.1125,-0.004 0.2726,0.0402 0.2323,0.1071 0.0841,0.0611 0.0794,0.0718 0.5745,0.5745 0.0378,-0.7281 0.1108,-0.7301 0.1263,-0.53 0.1647,-0.5301 0.2336,-0.5621 0.3127,-0.5611 0.3982,-0.5633 0.3106,-0.3708 0.3462,-0.3662 0.6978,-0.6464 0.6686,-0.5221 0.6421,-0.4108 0.6187,-0.3108 0.3054,-0.1224 0.692,-0.2154 0.6689,-0.1329 0.6499,-0.0554 0.4139,0.004 0.4108,0.0346 0.666,0.1177 0.655,0.1898 0.6477,0.2637 0.6948,0.3718 0.773,0.5084 0.7514,0.5816 0.4534,0.3969 0.4426,0.4237 6.5115,6.5116 0.1584,0.2098 0.0863,0.2343 0.016,0.1026 0.005,0.1075 -0.0369,0.2699 -0.1038,0.2281 -0.0584,0.0804 z"
     stroke="#0000ff"
     stroke-width="0.1 mm"
     fill="none"
     id="path34" />
  <path
     d="m 481.72311,530.91051 -0.6823,0.3746 -0.7342,0.4627 -2.1813,1.4064 -0.9114,0.5319 -0.8037,0.3873 -0.3348,0.1344 -0.324,0.1128 -0.6889,0.1816 -0.6296,0.0921 -0.3325,0.0163 -0.3227,-0.008 -0.5403,-0.0721 -0.512,-0.1415 -0.3254,-0.1314 -0.3159,-0.1616 -0.5665,-0.3638 -0.5609,-0.4476 -0.193,-0.1755 -0.1909,-0.1851 -0.3717,-0.4231 -0.3165,-0.4706 -0.2631,-0.5225 -0.1354,-0.3492 -0.1638,-0.5821 -0.0945,-0.6053 -0.0249,-0.6331 0.0204,-0.4058 0.092,-0.6622 0.1691,-0.6841 0.2514,-0.7103 0.1693,-0.3898 0.3297,-0.6263 0.4144,-0.6295 0.5062,-0.6349 0.5207,-0.5574 0.7376,-0.6862 0.716,-0.5683 0.4667,-0.3191 0.4677,-0.2794 0.7731,-0.3878 0.7231,-0.2829 0.4013,-0.121 0.3943,-0.0921 0.656,-0.0938 0.6078,-0.0144 0.3876,0.032 0.3752,0.0651 0.5454,0.1579 0.473,0.2116 0.2852,0.173 0.2614,0.1986 0.1633,0.1832 0.0909,0.2105 0.0214,0.1203 0.005,0.1291 -0.0447,0.2813 -0.1098,0.2339 -0.0575,0.0782 -0.0665,0.0735 -1.8672,1.8672 -0.3085,0.2582 -0.2609,0.13 -0.0538,0.0153 -0.0532,0.0108 -0.6984,0.1018 -0.3839,0.0871 -0.496,0.1962 -0.3441,0.2021 -0.4448,0.3505 -0.2107,0.1914 -0.2221,0.2157 -0.4542,0.5057 -0.3507,0.4972 -0.1417,0.249 -0.1212,0.2515 -0.107,0.334 -0.0196,0.2928 0.0543,0.2634 0.1253,0.2448 0.1633,0.1955 0.243,0.1916 0.3378,0.1225 0.2414,-4e-4 0.3242,-0.0774 0.1308,-0.0474 0.1386,-0.0579 0.6279,-0.3175 0.7168,-0.4227 2.1072,-1.359 0.9291,-0.5596 0.8389,-0.4224 0.7577,-0.302 0.6851,-0.1966 0.6211,-0.1041 0.3299,-0.0221 0.3191,0.003 0.5951,0.0661 0.5668,0.1359 0.5434,0.2051 0.5243,0.2759 0.5086,0.3505 0.2921,0.2424 0.2843,0.2677 0.3573,0.4088 0.3002,0.454 0.2454,0.5037 0.1475,0.4116 0.1404,0.5778 0.0727,0.609 0.003,0.6453 -0.0386,0.4557 -0.1153,0.6614 -0.1947,0.6889 -0.2804,0.7208 -0.2359,0.4961 -0.3879,0.68 -0.4746,0.6837 -0.568,0.6892 -0.5101,0.5396 -0.7476,0.6961 -0.7226,0.5752 -0.6997,0.4655 -0.4005,0.2259 -0.7917,0.3756 -0.7421,0.273 -0.464,0.1286 -0.455,0.0924 -0.6859,0.0761 -0.631,-0.002 -0.4184,-0.0454 -0.4025,-0.0813 -0.5572,-0.1783 -0.4723,-0.2261 -0.2901,-0.1875 -0.2604,-0.2131 -0.1638,-0.1837 -0.0911,-0.2107 -0.0215,-0.1204 -0.004,-0.1292 0.0447,-0.2822 0.1096,-0.2342 0.0576,-0.0784 0.0666,-0.0736 1.8665,-1.8664 0.2803,-0.2293 0.2524,-0.1168 0.0913,-0.0206 0.091,-0.009 0.7978,-0.026 0.3817,-0.0478 0.6474,-0.2079 0.3539,-0.1878 0.4374,-0.3186 0.2976,-0.258 0.3166,-0.3034 0.3577,-0.3817 0.3455,-0.4177 0.3755,-0.5431 0.1825,-0.329 0.1726,-0.4258 0.0823,-0.4099 -0.0118,-0.2668 -0.0813,-0.2214 -0.0606,-0.0921 -0.0752,-0.0858 -0.2176,-0.1661 -0.2262,-0.083 -0.0789,-0.0115 -0.081,-0.004 -0.2749,0.0363 -0.3833,0.1288 -0.1224,0.0534 z"
     stroke="#0000ff"
     stroke-width="0.1 mm"
     fill="none"
     id="path36" />
  <path
     d="m 492.86321,522.44421 2.377,2.377 0.1589,0.2103 0.0865,0.2344 0.016,0.1027 0.005,0.1076 -0.0364,0.2704 -0.1031,0.2279 -0.0582,0.0803 -0.0683,0.0757 -2.2554,2.2554 -0.2098,0.1584 -0.2344,0.0863 -0.1026,0.016 -0.1075,0.005 -0.2701,-0.0364 -0.228,-0.1032 -0.0808,-0.0585 -0.0761,-0.0687 -2.377,-2.377 -0.1588,-0.2102 -0.0865,-0.2345 -0.0161,-0.1027 -0.005,-0.1076 0.0364,-0.2704 0.1031,-0.2279 0.0582,-0.0803 0.0683,-0.0756 2.2555,-2.2555 0.2098,-0.1584 0.2343,-0.0862 0.1026,-0.016 0.1075,-0.005 0.2702,0.0364 0.228,0.1032 0.0807,0.0585 z"
     stroke="#0000ff"
     stroke-width="0.1 mm"
     fill="none"
     id="path38" />
  <path
     d="m 497.48781,501.32731 0.7704,0.005 0.7564,0.0772 0.746,0.1493 0.6835,0.2029 0.6953,0.2778 0.6624,0.3431 0.6329,0.4097 0.6382,0.5075 0.5816,0.5327 0.6787,0.6787 0.6661,0.6661 0.5208,0.5698 0.4978,0.6494 0.4236,0.6714 0.353,0.6956 0.2511,0.625 0.2191,0.7243 0.1445,0.728 0.0717,0.7348 -4e-4,0.7447 -0.0728,0.7429 -0.1461,0.7444 -0.2217,0.7494 -0.2997,0.7559 -0.3462,0.6848 -0.4233,0.6751 -0.5052,0.6677 -0.7251,0.7961 -0.6762,0.6247 -0.6799,0.5303 -0.6848,0.4426 -0.7836,0.4029 -0.7703,0.3048 -0.7592,0.2227 -0.7511,0.145 -0.7127,0.0686 -0.7506,-2e-4 -0.7368,-0.0727 -0.7266,-0.1448 -0.7178,-0.2172 -0.7194,-0.2948 -0.6902,-0.3615 -0.6639,-0.43 -0.5671,-0.4399 -0.5825,-0.5083 -0.6779,-0.6542 -0.6668,-0.6905 -0.5201,-0.5943 -0.4883,-0.6115 -0.4153,-0.6361 -0.3461,-0.6628 -0.2884,-0.7184 -0.2182,-0.7455 -0.1438,-0.7495 -0.0711,-0.7565 -0.002,-0.704 0.0665,-0.741 0.1396,-0.7398 0.2144,-0.7421 0.308,-0.783 0.3461,-0.6847 0.4233,-0.6751 0.5053,-0.6678 0.7258,-0.7969 0.6759,-0.6245 0.6797,-0.53 0.6847,-0.4426 0.7834,-0.4027 0.7593,-0.2998 0.7504,-0.2187 0.7445,-0.1415 z"
     stroke="#0000ff"
     stroke-width="0.1 mm"
     fill="none"
     id="path40" />
  <path
     d="m 496.98431,505.59991 -0.5014,0.125 -0.4669,0.1911 -0.1645,0.0872 -0.1606,0.0962 -0.5503,0.3914 -0.5522,0.4933 -0.4638,0.5152 -0.4217,0.5881 -0.2417,0.4483 -0.1731,0.4745 -0.0474,0.1837 -0.0381,0.1878 -0.0444,0.4625 0.0275,0.4817 0.044,0.2621 0.0644,0.2663 0.1639,0.4535 0.2518,0.4785 0.2171,0.3279 0.2551,0.3318 0.4451,0.5177 0.5903,0.614 0.6258,0.6022 0.5058,0.4332 0.5442,0.3997 0.5068,0.2843 0.2718,0.1157 0.269,0.0882 0.5234,0.1078 0.4916,0.028 0.2306,-0.0134 0.227,-0.0309 0.5034,-0.1258 0.4687,-0.1919 0.1634,-0.0865 0.1596,-0.0953 0.5512,-0.3933 0.5513,-0.493 0.4649,-0.5164 0.4205,-0.5853 0.2414,-0.4494 0.1727,-0.4749 0.0469,-0.183 0.0378,-0.1869 0.0448,-0.4626 -0.0271,-0.4814 -0.0439,-0.2626 -0.0646,-0.2668 -0.163,-0.4528 -0.2507,-0.4771 -0.2178,-0.329 -0.2563,-0.3329 -0.4459,-0.4933 -0.614,-0.614 -0.6021,-0.6021 -0.5051,-0.4577 -0.5422,-0.399 -0.5055,-0.2839 -0.2734,-0.1165 -0.2707,-0.0885 -0.5226,-0.1076 -0.4912,-0.0278 -0.2316,0.0136 z"
     stroke="#0000ff"
     stroke-width="0.1 mm"
     fill="none"
     id="path42" />
  <path
     d="m 524.55681,496.81471 -1.842,1.842 -0.2106,0.1592 -0.2347,0.0867 -0.102,0.0161 -0.1069,0.005 -0.2704,-0.0364 -0.2279,-0.1031 -0.0803,-0.0582 -0.0756,-0.0682 -6.1509,-6.1509 -0.5693,-0.5179 -0.5549,-0.4082 -0.5428,-0.3105 -0.5338,-0.2227 -0.5285,-0.1422 -0.1366,-0.0245 -0.137,-0.0195 -0.4687,-0.0218 -0.4572,0.0514 -0.4513,0.1242 -0.451,0.2003 -0.455,0.2828 -0.3389,0.2656 -0.3349,0.3105 -0.3995,0.4509 -0.3066,0.4541 -0.2237,0.4597 -0.1477,0.4689 -0.0757,0.4825 -0.0114,0.2873 0.0124,0.2929 0.0797,0.5284 0.1524,0.5209 0.2278,0.5179 0.3086,0.5187 0.397,0.5229 0.2016,0.2283 0.2175,0.2265 6.1509,6.1509 0.1584,0.2098 0.0862,0.2343 0.016,0.1026 0.005,0.1075 -0.0364,0.2692 -0.1033,0.2277 -0.0584,0.0805 -0.0687,0.0761 -1.8427,1.8427 -0.2103,0.1588 -0.2344,0.0865 -0.1027,0.0161 -0.1076,0.005 -0.2697,-0.0369 -0.2282,-0.1038 -0.0809,-0.0587 -0.0762,-0.0689 -11.3153,-11.3153 -0.1597,-0.211 -0.087,-0.2349 -0.0161,-0.1021 -0.006,-0.107 0.0364,-0.2701 0.1032,-0.228 0.0585,-0.0808 0.0687,-0.0761 1.8427,-1.8428 0.2077,-0.1562 0.2325,-0.0844 0.1071,-0.0158 0.1125,-0.004 0.2726,0.0402 0.2323,0.107 0.0841,0.0612 0.0794,0.0718 0.5745,0.5745 0.0378,-0.7281 0.1108,-0.7301 0.1263,-0.53 0.1647,-0.5301 0.2336,-0.5621 0.3127,-0.5611 0.3982,-0.5633 0.3107,-0.3709 0.3461,-0.3662 0.6978,-0.6464 0.6686,-0.5221 0.6421,-0.4107 0.6187,-0.3108 0.3054,-0.1224 0.692,-0.2154 0.6689,-0.1329 0.6499,-0.0554 0.4139,0.004 0.4108,0.0346 0.666,0.1178 0.655,0.1898 0.6477,0.2637 0.6948,0.3718 0.773,0.5084 0.7514,0.5816 0.4534,0.3968 0.4426,0.4238 6.5115,6.5116 0.1584,0.2097 0.0863,0.2344 0.016,0.1026 0.005,0.1075 -0.0369,0.2699 -0.1038,0.2281 -0.0583,0.0804 z"
     stroke="#0000ff"
     stroke-width="0.1 mm"
     fill="none"
     id="path44" />
  <path
     d="m 523.35251,473.38711 0.6788,-0.1948 0.561,-0.0933 0.5323,-0.0379 0.4526,0.005 -5.1999,-5.1999 -0.1599,-0.2113 -0.0873,-0.2352 -0.0163,-0.103 -0.006,-0.1079 0.0353,-0.2706 0.1022,-0.2279 0.0586,-0.0815 0.0691,-0.0766 1.842,-1.842 0.2102,-0.1588 0.2345,-0.0865 0.1027,-0.0161 0.1076,-0.005 0.2701,0.0363 0.228,0.1033 0.0808,0.0584 0.0761,0.0687 15.9131,15.9131 0.1588,0.2102 0.0865,0.2345 0.0161,0.1027 0.005,0.1076 -0.0364,0.2702 -0.1032,0.228 -0.0585,0.0807 -0.0686,0.0761 -1.842,1.842 -0.2102,0.1588 -0.2345,0.0865 -0.1027,0.0161 -0.1076,0.005 -0.2704,-0.0363 -0.2279,-0.1032 -0.0803,-0.0582 -0.0756,-0.0682 -0.558,-0.558 -4e-4,0.5714 -0.0327,0.4135 -0.0946,0.5677 -0.1927,0.6729 -0.2468,0.608 -0.4303,0.7999 -0.3807,0.5605 -0.4873,0.5855 -0.161,0.1726 -0.169,0.173 -0.5791,0.5276 -0.593,0.4429 -0.6084,0.3642 -0.4372,0.2112 -0.4489,0.1768 -0.7309,0.2173 -0.7249,0.14 -0.7222,0.0656 -0.7546,-0.009 -0.7677,-0.0869 -0.7619,-0.1595 -0.7595,-0.2336 -0.6191,-0.2469 -0.7477,-0.3696 -0.7068,-0.4304 -0.6687,-0.4925 -0.4692,-0.4034 -0.8721,-0.8231 -0.8231,-0.8721 -0.5429,-0.6465 -0.4767,-0.6807 -0.4133,-0.7168 -0.263,-0.5484 -0.299,-0.7691 -0.2201,-0.7659 -0.1447,-0.7656 -0.0623,-0.6068 -0.0107,-0.7247 0.062,-0.7197 0.1351,-0.7182 0.2271,-0.77 0.2599,-0.6319 0.3298,-0.6099 0.4025,-0.5909 0.3454,-0.4241 0.3844,-0.4106 0.627,-0.5755 0.5963,-0.4509 0.1342,-0.0883 0.1341,-0.0833 0.7089,-0.3868 z"
     stroke="#0000ff"
     stroke-width="0.1 mm"
     fill="none"
     id="path46" />
  <path
     d="m 528.63291,486.01321 0.5449,-0.0866 0.5183,-0.1559 0.4967,-0.2254 0.4791,-0.2979 0.6592,-0.5608 0.4168,-0.4682 0.3293,-0.4781 0.2501,-0.49 0.1764,-0.5051 0.1303,-0.7568 0.002,-0.5061 -0.0711,-0.4984 -0.1447,-0.4959 -0.2218,-0.4984 -0.3055,-0.5049 -0.155,-0.2146 -0.1696,-0.2135 -0.45,-0.5312 -0.4158,-0.4324 -0.5179,-0.4935 -0.4457,-0.3723 -0.5178,-0.3796 -0.5123,-0.2867 -0.5096,-0.2028 -0.5107,-0.1254 -0.5164,-0.052 -0.1697,-10e-4 -0.1708,0.006 -0.5424,0.0682 -0.5137,0.1377 -0.4903,0.2067 -0.4715,0.2782 -0.456,0.3542 -0.1253,0.1138 -0.1235,0.1197 -0.4204,0.4718 -0.3337,0.4825 -0.2548,0.4953 -0.1815,0.5112 -0.1354,0.7382 -0.006,0.4642 0.0672,0.4778 0.1443,0.4973 0.2286,0.5225 0.3229,0.5532 0.2454,0.3502 0.2792,0.3546 0.5334,0.6043 0.8145,0.7437 0.6236,0.4704 0.582,0.3501 0.5453,0.2449 0.5139,0.1525 0.4884,0.07 0.2349,0.006 z"
     stroke="#0000ff"
     stroke-width="0.1 mm"
     fill="none"
     id="path48" />
  <path
     d="m 545.16071,467.47291 -0.6824,0.3746 -0.7342,0.4628 -2.1813,1.4063 -0.9113,0.5319 -0.8037,0.3873 -0.3349,0.1344 -0.3239,0.1128 -0.6889,0.1816 -0.6296,0.0922 -0.3325,0.0162 -0.3228,-0.008 -0.5403,-0.0721 -0.5119,-0.1415 -0.3254,-0.1314 -0.3159,-0.1616 -0.5665,-0.3637 -0.561,-0.4476 -0.1929,-0.1756 -0.1909,-0.185 -0.3717,-0.4232 -0.3165,-0.4706 -0.2632,-0.5225 -0.1353,-0.3491 -0.1638,-0.5821 -0.0946,-0.6053 -0.0248,-0.6332 0.0204,-0.4057 0.0919,-0.6622 0.1692,-0.6842 0.2514,-0.7103 0.1693,-0.3898 0.3297,-0.6263 0.4144,-0.6295 0.5062,-0.6349 0.5206,-0.5573 0.7377,-0.6863 0.716,-0.5683 0.4667,-0.3191 0.4677,-0.2793 0.7731,-0.3879 0.7231,-0.2829 0.4013,-0.121 0.3943,-0.0921 0.656,-0.0938 0.6077,-0.0144 0.3876,0.032 0.3753,0.0651 0.5454,0.158 0.4729,0.2115 0.2852,0.173 0.2615,0.1986 0.1633,0.1832 0.0909,0.2105 0.0214,0.1204 0.005,0.1291 -0.0447,0.2812 -0.1098,0.234 -0.0575,0.0782 -0.0666,0.0734 -1.8672,1.8672 -0.3084,0.2582 -0.2609,0.13 -0.0539,0.0153 -0.0531,0.0108 -0.6984,0.1018 -0.3839,0.0871 -0.4961,0.1963 -0.344,0.202 -0.4448,0.3506 -0.2107,0.1914 -0.2221,0.2156 -0.4543,0.5057 -0.3507,0.4972 -0.1416,0.249 -0.1212,0.2515 -0.107,0.334 -0.0196,0.2928 0.0543,0.2634 0.1253,0.2448 0.1633,0.1956 0.2429,0.1915 0.3379,0.1226 0.2413,-4e-4 0.3242,-0.0775 0.1309,-0.0474 0.1386,-0.0578 0.6279,-0.3176 0.7168,-0.4227 2.1071,-1.359 0.9291,-0.5596 0.839,-0.4224 0.7576,-0.302 0.6852,-0.1966 0.6211,-0.104 0.3298,-0.0222 0.3192,0.003 0.5951,0.0662 0.5667,0.1358 0.5435,0.2051 0.5243,0.2759 0.5086,0.3505 0.2921,0.2424 0.2843,0.2678 0.3573,0.4087 0.3002,0.4541 0.2453,0.5036 0.1476,0.4116 0.1404,0.5778 0.0727,0.609 0.003,0.6454 -0.0387,0.4556 -0.1152,0.6614 -0.1948,0.6889 -0.2803,0.7209 -0.2359,0.496 -0.3879,0.6801 -0.4746,0.6836 -0.568,0.6892 -0.5101,0.5396 -0.7476,0.6961 -0.7226,0.5752 -0.6998,0.4655 -0.4004,0.2259 -0.7917,0.3756 -0.7422,0.273 -0.4639,0.1286 -0.455,0.0925 -0.6859,0.076 -0.631,-0.002 -0.4185,-0.0454 -0.4025,-0.0813 -0.5571,-0.1783 -0.4724,-0.2261 -0.29,-0.1875 -0.2604,-0.2131 -0.1638,-0.1837 -0.0911,-0.2107 -0.0215,-0.1204 -0.005,-0.1291 0.0447,-0.2822 0.1097,-0.2343 0.0576,-0.0784 0.0666,-0.0736 1.8664,-1.8664 0.2804,-0.2293 0.2523,-0.1167 0.0914,-0.0207 0.0909,-0.009 0.7979,-0.0261 0.3817,-0.0478 0.6474,-0.2079 0.3539,-0.1878 0.4374,-0.3186 0.2976,-0.258 0.3166,-0.3033 0.3577,-0.3818 0.3455,-0.4177 0.3755,-0.5431 0.1824,-0.3289 0.1727,-0.4258 0.0822,-0.41 -0.0117,-0.2668 -0.0813,-0.2213 -0.0606,-0.0922 -0.0752,-0.0857 -0.2176,-0.1662 -0.2262,-0.0829 -0.0789,-0.0116 -0.081,-0.004 -0.2749,0.0363 -0.3833,0.1289 -0.1224,0.0533 z"
     stroke="#0000ff"
     stroke-width="0.1 mm"
     fill="none"
     id="path50" />
  <path
     d="m 546.10301,453.41451 -0.0131,-0.7552 0.0597,-0.7468 0.1324,-0.7421 0.1355,-0.5148 0.1709,-0.5123 0.2872,-0.6742 0.3578,-0.6536 0.4314,-0.6358 0.5093,-0.6202 0.3659,-0.3859 0.6312,-0.5797 0.6428,-0.4926 0.6557,-0.4115 0.6705,-0.3354 0.3561,-0.1458 0.771,-0.2542 0.7615,-0.1748 0.7551,-0.0991 0.9212,-0.0212 0.7611,0.0636 0.7538,0.1361 0.7498,0.2095 0.892,0.3484 0.7337,0.3712 0.6945,0.4329 0.658,0.4959 0.6949,0.6319 1.0875,1.0875 0.1582,0.2097 0.086,0.2339 0.0158,0.1025 0.005,0.1073 -0.0363,0.2693 -0.1033,0.2276 -0.0585,0.0806 -0.0686,0.076 -8.097,8.097 0.3831,0.3317 0.3899,0.2429 0.2152,0.0982 0.2208,0.0769 0.4702,0.1007 0.4718,0.0267 0.1942,-0.01 0.1952,-0.022 0.4982,-0.1092 0.4962,-0.1838 0.1692,-0.0804 0.1685,-0.0891 0.5284,-0.3357 0.6593,-0.5616 0.5655,-0.6168 0.3874,-0.5259 0.0831,-0.1356 0.0736,-0.1327 0.2496,-0.5525 0.1687,-0.6313 0.0848,-0.3989 0.0951,-0.2924 0.1423,-0.2443 0.2492,-0.286 1.9398,-1.9398 0.2121,-0.1608 0.2414,-0.0918 0.1037,-0.0183 0.1088,-0.008 0.2594,0.0276 0.2095,0.0942 0.0892,0.0694 0.0812,0.085 0.1691,0.2499 0.1603,0.3736 0.0877,0.2902 0.0769,0.3316 0.0723,0.5382 0.008,0.6202 -0.0333,0.4528 -0.0646,0.4802 -0.1527,0.7136 -0.2402,0.7686 -0.2158,0.5524 -0.2562,0.5681 -0.3591,0.6634 -0.4489,0.6747 -0.5466,0.6885 -0.672,0.7229 -0.6456,0.5941 -0.6554,0.5053 -0.6666,0.4228 -0.4772,0.2511 -0.4878,0.2154 -0.7213,0.2492 -0.7204,0.1723 -0.7229,0.0983 -0.5273,0.0259 -0.5311,-0.0122 -0.7543,-0.0805 -0.7524,-0.1536 -0.7538,-0.2285 -0.5003,-0.1934 -0.4986,-0.2263 -0.7435,-0.4039 -0.7347,-0.4823 -0.7276,-0.5655 -0.8593,-0.7896 -0.6423,-0.6937 -0.5641,-0.7157 -0.4902,-0.7388 -0.4469,-0.8191 -0.3387,-0.777 -0.257,-0.7704 -0.1796,-0.7667 z"
     stroke="#0000ff"
     stroke-width="0.1 mm"
     fill="none"
     id="path52" />
  <path
     d="m 550.15391,452.85971 0.0197,0.5137 0.0904,0.4751 0.0356,0.1213 0.0405,0.1194 0.2282,0.5209 0.2856,0.4522 5.4785,-5.4785 -0.4957,-0.3314 -0.4292,-0.2305 -0.4052,-0.1581 -0.4329,-0.0906 -0.1516,-0.0152 -0.1547,-0.008 -0.4318,0.0254 -0.4609,0.1011 -0.2115,0.0697 -0.2153,0.0847 -0.422,0.2184 -0.46,0.3222 -0.2932,0.2474 -0.299,0.2838 -0.4506,0.502 -0.3315,0.4755 -0.1179,0.2122 -0.0991,0.2118 -0.1891,0.5385 -0.103,0.5092 -0.0159,0.1542 z"
     stroke="#0000ff"
     stroke-width="0.1 mm"
     fill="none"
     id="path54" />
  <path
     d="m 572.49721,448.87431 -1.8428,1.8427 -0.2102,0.1589 -0.2345,0.0865 -0.1027,0.016 -0.1076,0.005 -0.2699,-0.0369 -0.228,-0.1038 -0.0805,-0.0584 -0.0758,-0.0684 -15.9131,-15.9131 -0.1591,-0.2106 -0.0868,-0.2347 -0.0161,-0.1021 -0.005,-0.1068 0.0364,-0.2702 0.1032,-0.228 0.0585,-0.0807 0.0686,-0.0762 1.8428,-1.8427 0.2101,-0.1587 0.234,-0.0862 0.1027,-0.0159 0.1074,-0.005 0.2702,0.0364 0.228,0.1032 0.0807,0.0585 0.0761,0.0687 15.9131,15.9131 0.1588,0.2102 0.0865,0.2345 0.0161,0.1027 0.005,0.1076 -0.0358,0.2694 -0.1028,0.2276 -0.0585,0.0809 z"
     stroke="#0000ff"
     stroke-width="0.1 mm"
     fill="none"
     id="path56" />
  <path
     d="m 576.75641,438.55101 2.377,2.377 0.1588,0.2103 0.0865,0.2344 0.0161,0.1028 0.005,0.1076 -0.0364,0.2704 -0.1032,0.2278 -0.0581,0.0803 -0.0683,0.0757 -2.2555,2.2555 -0.2098,0.1583 -0.2343,0.0863 -0.1026,0.016 -0.1075,0.005 -0.2702,-0.0363 -0.228,-0.1033 -0.0807,-0.0584 -0.0761,-0.0687 -2.377,-2.377 -0.1589,-0.2103 -0.0865,-0.2344 -0.016,-0.1028 -0.005,-0.1076 0.0364,-0.2704 0.1031,-0.2278 0.0582,-0.0803 0.0683,-0.0757 2.2554,-2.2555 0.2098,-0.1583 0.2344,-0.0863 0.1026,-0.016 0.1075,-0.005 0.2701,0.0363 0.228,0.1033 0.0808,0.0584 z"
     stroke="#0000ff"
     stroke-width="0.1 mm"
     fill="none"
     id="path58" />
  <path
     d="m 579.92891,430.55191 0.5647,0.4174 0.5353,0.3071 0.2583,0.1167 0.2572,0.0955 0.5472,0.1423 0.5129,0.0594 0.2325,10e-4 0.2289,-0.0152 0.5313,-0.0922 0.5031,-0.1608 0.1672,-0.0711 0.1645,-0.0792 0.4991,-0.2969 0.4527,-0.3538 0.1006,-0.0921 0.0982,-0.0953 0.5532,-0.6047 0.3701,-0.5081 0.2614,-0.4858 0.1695,-0.4896 0.0845,-0.5071 0.01,-0.3934 -0.0367,-0.4427 -0.0723,-0.4664 -0.0876,-0.7663 0.0236,-0.2761 0.0911,-0.2274 0.0599,-0.0879 0.0725,-0.0818 1.8427,-1.8427 0.2122,-0.1608 0.2413,-0.0917 0.1037,-0.0184 0.1089,-0.008 0.2597,0.0277 0.21,0.0941 0.0892,0.0691 0.0811,0.0846 0.2722,0.3538 0.273,0.4787 0.1645,0.3597 0.1568,0.4019 0.173,0.5855 0.1135,0.6435 0.05,0.7089 -0.004,0.5046 -0.0626,0.6923 -0.1401,0.7321 -0.2238,0.7774 -0.2822,0.7498 -0.3132,0.656 -0.4006,0.6686 -0.4958,0.6838 -0.5999,0.7017 -0.3987,0.415 -0.6492,0.5979 -0.6548,0.5051 -0.6616,0.4193 -0.4376,0.2308 -0.4457,0.1994 -0.7723,0.2758 -0.7671,0.1972 -0.765,0.1218 -0.7616,0.0483 -0.7709,-0.0242 -0.7539,-0.0962 -0.7403,-0.1679 -0.7385,-0.2436 -0.7545,-0.3281 -0.718,-0.3915 -0.6846,-0.4562 -0.508,-0.3986 -0.6594,-0.573 -0.3586,-0.3472 -0.5029,-0.5273 -0.4418,-0.5152 -0.5012,-0.6262 -0.4353,-0.66 -0.372,-0.6961 -0.2903,-0.682 -0.2478,-0.7614 -0.1717,-0.762 -0.0981,-0.7656 -0.0262,-0.728 0.0425,-0.7459 0.1155,-0.7459 0.1899,-0.7492 0.2953,-0.825 0.318,-0.6749 0.3923,-0.6608 0.4705,-0.6493 0.3736,-0.4429 0.4099,-0.4329 0.736,-0.6846 0.7145,-0.5669 0.695,-0.4598 0.4893,-0.2702 0.4903,-0.2266 0.8484,-0.3146 0.7933,-0.2178 0.7437,-0.1298 0.567,-0.0457 0.7797,0.006 0.7022,0.0774 0.6332,0.1419 0.3266,0.1057 0.7052,0.2936 0.5256,0.2945 0.1935,0.137 0.1698,0.1414 0.1616,0.1825 0.0897,0.2102 0.0208,0.1197 0.004,0.1284 -0.0458,0.2809 -0.1109,0.234 -0.0573,0.0775 -0.0661,0.0729 -1.8427,1.8427 -0.2019,0.1504 -0.2292,0.0804 -0.1176,0.0152 -0.1245,0.001 -0.7663,-0.0876 -0.4664,-0.0722 -0.4428,-0.0367 -0.459,0.0163 -0.4406,0.0784 -0.4179,0.1379 -0.5583,0.2922 -0.4598,0.3308 -0.653,0.5926 -0.3823,0.4338 -0.3216,0.4747 -0.0684,0.1202 -0.065,0.1227 -0.2088,0.4873 -0.1384,0.5076 -0.0323,0.1842 -0.0238,0.187 -0.0134,0.478 0.0594,0.5003 0.0608,0.2694 0.081,0.2738 0.201,0.493 0.2891,0.5129 0.2086,0.3036 0.2373,0.3052 0.4666,0.5501 0.3281,0.3409 0.4635,0.4393 z"
     stroke="#0000ff"
     stroke-width="0.1 mm"
     fill="none"
     id="path60" />
  <path
     d="m 595.37161,403.44351 0.7704,0.005 0.7564,0.0772 0.746,0.1492 0.6835,0.2029 0.6952,0.2779 0.6625,0.343 0.6329,0.4098 0.6382,0.5074 0.5816,0.5327 0.6787,0.6787 0.666,0.6661 0.5209,0.5698 0.4978,0.6494 0.4236,0.6715 0.353,0.6955 0.2511,0.625 0.2191,0.7244 0.1445,0.7279 0.0717,0.7348 -5e-4,0.7447 -0.0727,0.7429 -0.1461,0.7445 -0.2217,0.7493 -0.2997,0.7559 -0.3462,0.6848 -0.4233,0.6751 -0.5052,0.6677 -0.7251,0.7961 -0.6762,0.6248 -0.6799,0.5302 -0.6848,0.4427 -0.7836,0.4028 -0.7703,0.3048 -0.7592,0.2227 -0.7512,0.145 -0.7127,0.0686 -0.7505,-2e-4 -0.7368,-0.0727 -0.7266,-0.1448 -0.7179,-0.2172 -0.7194,-0.2948 -0.6901,-0.3615 -0.6639,-0.43 -0.5672,-0.4399 -0.5824,-0.5083 -0.6779,-0.6542 -0.6668,-0.6905 -0.5201,-0.5943 -0.4883,-0.6114 -0.4153,-0.6361 -0.3461,-0.6629 -0.2884,-0.7183 -0.2183,-0.7456 -0.1437,-0.7495 -0.0712,-0.7565 -0.002,-0.7039 0.0665,-0.741 0.1396,-0.7399 0.2144,-0.742 0.3079,-0.7831 0.3461,-0.6847 0.4234,-0.6751 0.5053,-0.6678 0.7258,-0.7969 0.6759,-0.6245 0.6797,-0.53 0.6847,-0.4425 0.7834,-0.4028 0.7593,-0.2998 0.7504,-0.2187 0.7445,-0.1415 z"
     stroke="#0000ff"
     stroke-width="0.1 mm"
     fill="none"
     id="path62" />
  <path
     d="m 594.86811,407.71611 -0.5014,0.125 -0.4669,0.1911 -0.1645,0.0872 -0.1607,0.0963 -0.5502,0.3913 -0.5522,0.4933 -0.4638,0.5152 -0.4217,0.5881 -0.2417,0.4483 -0.1732,0.4745 -0.0473,0.1837 -0.0381,0.1878 -0.0444,0.4625 0.0274,0.4818 0.0441,0.262 0.0644,0.2663 0.1639,0.4536 0.2517,0.4784 0.2171,0.3279 0.2551,0.3319 0.4451,0.5177 0.5903,0.6139 0.6259,0.6022 0.5058,0.4333 0.5442,0.3996 0.5068,0.2843 0.2718,0.1157 0.269,0.0882 0.5234,0.1078 0.4915,0.028 0.2307,-0.0134 0.227,-0.0309 0.5034,-0.1258 0.4686,-0.1919 0.1635,-0.0864 0.1596,-0.0954 0.5512,-0.3932 0.5513,-0.4931 0.4649,-0.5163 0.4205,-0.5854 0.2414,-0.4493 0.1727,-0.475 0.0469,-0.183 0.0378,-0.1869 0.0447,-0.4626 -0.027,-0.4814 -0.0439,-0.2626 -0.0646,-0.2668 -0.163,-0.4528 -0.2507,-0.4771 -0.2178,-0.329 -0.2563,-0.3329 -0.4459,-0.4932 -0.614,-0.614 -0.6021,-0.6022 -0.5051,-0.4577 -0.5422,-0.399 -0.5055,-0.2839 -0.2734,-0.1164 -0.2707,-0.0885 -0.5226,-0.1076 -0.4912,-0.0279 -0.2316,0.0136 z"
     stroke="#0000ff"
     stroke-width="0.1 mm"
     fill="none"
     id="path64" />
  <path
     d="m 604.71471,390.99891 0.6505,-0.5991 0.6266,-0.48 0.6053,-0.3737 0.5869,-0.2781 0.5959,-0.1979 0.6873,-0.1419 0.6707,-0.0647 0.6583,0.009 0.65,0.082 0.3484,0.0743 -0.0937,-0.6189 -0.0224,-0.6351 0.007,-0.1954 0.014,-0.1969 0.1012,-0.7389 0.2279,-0.8955 0.2554,-0.6689 0.4249,-0.8084 0.4092,-0.5968 0.5488,-0.628 0.6533,-0.6019 0.6281,-0.4816 0.6055,-0.3743 0.5859,-0.278 0.2901,-0.1069 0.6667,-0.1842 0.6506,-0.1048 0.6388,-0.0296 0.7698,0.0629 0.6565,0.1366 0.6485,0.2095 0.644,0.2849 0.6545,0.372 0.7969,0.5482 0.7794,0.6249 0.4136,0.3704 0.406,0.3916 6.5116,6.5115 0.1583,0.2098 0.0863,0.2343 0.016,0.1026 0.005,0.1076 -0.0369,0.2699 -0.1037,0.228 -0.0584,0.0804 -0.0685,0.0759 -1.8419,1.8419 -0.2107,0.1592 -0.2346,0.0868 -0.1021,0.0161 -0.1069,0.005 -0.2704,-0.0364 -0.2278,-0.1031 -0.0803,-0.0582 -0.0757,-0.0683 -6.3932,-6.3932 -0.6501,-0.5986 -0.5835,-0.4416 -0.5246,-0.3086 -0.4734,-0.1965 -0.4304,-0.1018 -0.135,-0.0153 -0.1332,-0.007 -0.4505,0.0281 -0.439,0.1003 -0.4335,0.1741 -0.4327,0.2532 -0.4359,0.3408 -0.1163,0.1064 -0.1157,0.1122 -0.3549,0.4063 -0.2746,0.4239 -0.2015,0.4441 -0.1327,0.4685 -0.0677,0.5482 0.0175,0.4053 0.0923,0.4277 0.1746,0.4575 0.2683,0.4941 0.3768,0.5375 0.2521,0.3075 0.2823,0.3133 6.5139,6.5139 0.1584,0.2098 0.0862,0.2343 0.016,0.1026 0.005,0.1075 -0.0364,0.2692 -0.1033,0.2277 -0.0585,0.0806 -0.0686,0.076 -1.8427,1.8427 -0.2106,0.1592 -0.2347,0.0868 -0.1021,0.016 -0.1069,0.005 -0.2702,-0.0369 -0.2278,-0.1036 -0.08,-0.0581 -0.0754,-0.0681 -6.3932,-6.3932 -0.6501,-0.5986 -0.5835,-0.4416 -0.5245,-0.3086 -0.4735,-0.1965 -0.4304,-0.1019 -0.135,-0.0152 -0.1332,-0.007 -0.4505,0.0281 -0.439,0.1003 -0.4335,0.1741 -0.4327,0.2532 -0.4359,0.3408 -0.1163,0.1064 -0.1157,0.1122 -0.3538,0.4053 -0.2739,0.4231 -0.201,0.4439 -0.1325,0.4687 -0.0702,0.6226 0.0252,0.4102 0.1003,0.4293 0.1824,0.4552 0.2755,0.4876 0.383,0.5261 0.2901,0.3384 0.3281,0.3442 6.3932,6.3932 0.1584,0.2098 0.0862,0.2343 0.016,0.1026 0.005,0.1075 -0.0364,0.2692 -0.1033,0.2277 -0.0585,0.0806 -0.0686,0.076 -1.8427,1.8427 -0.2103,0.1588 -0.2344,0.0865 -0.1027,0.0161 -0.1076,0.005 -0.2697,-0.037 -0.2282,-0.1038 -0.0809,-0.0587 -0.0763,-0.0689 -11.3153,-11.3153 -0.1596,-0.211 -0.087,-0.2348 -0.0161,-0.1022 -0.006,-0.107 0.0364,-0.2701 0.1032,-0.228 0.0585,-0.0808 0.0687,-0.0761 1.8427,-1.8427 0.2077,-0.1563 0.2325,-0.0844 0.1071,-0.0158 0.1125,-0.004 0.2726,0.0402 0.2323,0.1071 0.0841,0.0611 0.0794,0.0718 0.5745,0.5745 -0.0238,-0.6493 0.0494,-0.6318 0.1212,-0.6187 0.1831,-0.5814 0.2677,-0.6104 0.3262,-0.563 0.3852,-0.5201 z"
     stroke="#0000ff"
     stroke-width="0.1 mm"
     fill="none"
     id="path66" />
</svg>
