<?xml version="1.0" encoding="UTF-8" standalone="no"?>
<svg
   xmlns:dc="http://purl.org/dc/elements/1.1/"
   xmlns:cc="http://creativecommons.org/ns#"
   xmlns:rdf="http://www.w3.org/1999/02/22-rdf-syntax-ns#"
   xmlns:svg="http://www.w3.org/2000/svg"
   xmlns="http://www.w3.org/2000/svg"
   xmlns:sodipodi="http://sodipodi.sourceforge.net/DTD/sodipodi-0.dtd"
   xmlns:inkscape="http://www.inkscape.org/namespaces/inkscape"
   width="500"
   zoomAndPan="magnify"
   viewBox="0 0 375 374.999991"
   height="500"
   preserveAspectRatio="xMidYMid meet"
   version="1.0"
   id="svg140"
   sodipodi:docname="configure.svg"
   inkscape:version="0.92.5 (2060ec1f9f, 2020-04-08)">
  <metadata
     id="metadata144">
    <rdf:RDF>
      <cc:Work
         rdf:about="">
        <dc:format>image/svg+xml</dc:format>
        <dc:type
           rdf:resource="http://purl.org/dc/dcmitype/StillImage" />
      </cc:Work>
    </rdf:RDF>
  </metadata>
  <sodipodi:namedview
     pagecolor="#ffffff"
     bordercolor="#666666"
     borderopacity="1"
     objecttolerance="10"
     gridtolerance="10"
     guidetolerance="10"
     inkscape:pageopacity="0"
     inkscape:pageshadow="2"
     inkscape:window-width="1076"
     inkscape:window-height="448"
     id="namedview142"
     showgrid="false"
     inkscape:zoom="0.472"
     inkscape:cx="419.17137"
     inkscape:cy="250"
     inkscape:window-x="1080"
     inkscape:window-y="1088"
     inkscape:window-maximized="0"
     inkscape:current-layer="svg140" />
  <defs
     id="defs52">
    <filter
       x="0%"
       y="0%"
       width="100%"
       height="100%"
       id="8b80c1ea5c">
      <feColorMatrix
         values="0 0 0 0 1 0 0 0 0 1 0 0 0 0 1 0 0 0 1 0"
         color-interpolation-filters="sRGB"
         id="feColorMatrix2" />
    </filter>
    <clipPath
       id="9a2d428729">
      <path
         d="M 72.324219 196 L 269 196 L 269 312.917969 L 72.324219 312.917969 Z M 72.324219 196 "
         clip-rule="nonzero"
         id="path5" />
    </clipPath>
    <clipPath
       id="9240f94769">
      <path
         d="M 72.324219 196 L 269 196 L 269 259 L 72.324219 259 Z M 72.324219 196 "
         clip-rule="nonzero"
         id="path8" />
    </clipPath>
    <clipPath
       id="781d117adc">
      <path
         d="M 72.324219 227 L 269 227 L 269 312.917969 L 72.324219 312.917969 Z M 72.324219 227 "
         clip-rule="nonzero"
         id="path11" />
    </clipPath>
    <clipPath
       id="66d4b4ba88">
      <path
         d="M 72.324219 129 L 269 129 L 269 246 L 72.324219 246 Z M 72.324219 129 "
         clip-rule="nonzero"
         id="path14" />
    </clipPath>
    <clipPath
       id="8bf28a7c5e">
      <path
         d="M 72.324219 129 L 269 129 L 269 192 L 72.324219 192 Z M 72.324219 129 "
         clip-rule="nonzero"
         id="path17" />
    </clipPath>
    <clipPath
       id="7762ae82cc">
      <path
         d="M 72.324219 160 L 269 160 L 269 246 L 72.324219 246 Z M 72.324219 160 "
         clip-rule="nonzero"
         id="path20" />
    </clipPath>
    <clipPath
       id="071f340911">
      <path
         d="M 72.324219 63 L 269 63 L 269 180 L 72.324219 180 Z M 72.324219 63 "
         clip-rule="nonzero"
         id="path23" />
    </clipPath>
    <clipPath
       id="feb575a753">
      <path
         d="M 72.324219 63 L 269 63 L 269 126 L 72.324219 126 Z M 72.324219 63 "
         clip-rule="nonzero"
         id="path26" />
    </clipPath>
    <clipPath
       id="08a4bcd384">
      <path
         d="M 72.324219 94 L 269 94 L 269 180 L 72.324219 180 Z M 72.324219 94 "
         clip-rule="nonzero"
         id="path29" />
    </clipPath>
    <clipPath
       id="fc5c8ad35b">
      <path
         d="M 86 63 L 255 63 L 255 312.917969 L 86 312.917969 Z M 86 63 "
         clip-rule="nonzero"
         id="path32" />
    </clipPath>
    <mask
       id="610bb107d2">
      <g
         filter="url(#8b80c1ea5c)"
         id="g37">
        <rect
           x="-37.5"
           width="450"
           fill="#000000"
           y="-37.499999"
           height="449.999989"
           fill-opacity="0.1569"
           id="rect35" />
      </g>
    </mask>
    <clipPath
       id="b981cfd551">
      <path
         d="M 4 0.121094 L 131 0.121094 L 131 249.917969 L 4 249.917969 Z M 4 0.121094 "
         clip-rule="nonzero"
         id="path40" />
    </clipPath>
    <clipPath
       id="05b680e3b6">
      <path
         d="M 86 0.121094 L 165 0.121094 L 165 243 L 86 243 Z M 86 0.121094 "
         clip-rule="nonzero"
         id="path43" />
    </clipPath>
    <clipPath
       id="bc3a4ebf43">
      <rect
         x="0"
         width="169"
         y="0"
         height="250"
         id="rect46" />
    </clipPath>
    <clipPath
       id="11db1e01c9">
      <path
         d="M 217 210 L 319.074219 210 L 319.074219 312.917969 L 217 312.917969 Z M 217 210 "
         clip-rule="nonzero"
         id="path49" />
    </clipPath>
  </defs>
  <g
     id="g992">
    <g
       id="g60"
       clip-path="url(#9a2d428729)">
      <path
         id="path58"
         fill-rule="nonzero"
         fill-opacity="1"
         d="M 268.332031 227.402344 L 268.332031 281.066406 C 268.332031 298.253906 224.449219 312.1875 170.367188 312.1875 C 116.246094 312.1875 72.367188 298.253906 72.367188 281.066406 L 72.367188 227.402344 C 72.367188 210.179688 116.246094 196.246094 170.367188 196.246094 C 224.449219 196.246094 268.332031 210.179688 268.332031 227.402344 Z M 268.332031 227.402344 "
         fill="#4f5d99" />
    </g>
    <g
       id="g64"
       clip-path="url(#9240f94769)">
      <path
         id="path62"
         fill-rule="nonzero"
         fill-opacity="1"
         d="M 268.332031 227.402344 C 268.332031 244.585938 224.449219 258.519531 170.367188 258.519531 C 116.246094 258.519531 72.367188 244.585938 72.367188 227.402344 C 72.367188 210.179688 116.246094 196.246094 170.367188 196.246094 C 224.449219 196.246094 268.332031 210.179688 268.332031 227.402344 Z M 268.332031 227.402344 "
         fill="#3d4a75" />
    </g>
    <g
       id="g68"
       clip-path="url(#781d117adc)">
      <path
         id="path66"
         fill-rule="nonzero"
         fill-opacity="1"
         d="M 72.367188 227.402344 C 72.367188 244.585938 116.246094 258.519531 170.367188 258.519531 C 224.449219 258.519531 268.332031 244.585938 268.332031 227.402344 L 268.332031 281.070312 C 268.332031 298.253906 224.449219 312.191406 170.367188 312.191406 C 116.246094 312.191406 72.367188 298.253906 72.367188 281.070312 Z M 72.367188 227.402344 "
         fill="#4f5d99" />
    </g>
    <path
       id="path70"
       fill-rule="nonzero"
       fill-opacity="1"
       d="M 134.484375 284.417969 C 134.484375 286.882812 132.320312 288.78125 129.855469 288.515625 C 108.445312 286.082031 94.285156 281.09375 88.730469 277.351562 C 87.753906 276.699219 87.21875 275.570312 87.21875 274.414062 C 87.21875 271.917969 89.652344 270.195312 91.96875 271 C 103.519531 275.066406 116.96875 278.804688 130.746094 280.289062 C 132.851562 280.527344 134.484375 282.28125 134.484375 284.417969 Z M 134.484375 284.417969 "
       fill="#e9e9ff" />
    <path
       id="path72"
       fill-rule="nonzero"
       fill-opacity="1"
       d="M 256.226562 271.730469 C 256.226562 275.429688 253.21875 278.402344 249.519531 278.402344 C 245.820312 278.402344 242.8125 275.429688 242.8125 271.730469 C 242.8125 268.03125 245.820312 265.023438 249.519531 265.023438 C 253.21875 265.023438 256.226562 268.03125 256.226562 271.730469 Z M 256.226562 271.730469 "
       fill="#7bd681" />
    <path
       id="path74"
       fill-rule="nonzero"
       fill-opacity="1"
       d="M 209.546875 281.867188 C 209.546875 285.566406 206.535156 288.539062 202.835938 288.539062 C 199.136719 288.539062 196.128906 285.566406 196.128906 281.867188 C 196.128906 278.167969 199.136719 275.160156 202.835938 275.160156 C 206.535156 275.160156 209.546875 278.167969 209.546875 281.867188 Z M 209.546875 281.867188 "
       fill="#ed524e" />
    <g
       id="g78"
       clip-path="url(#66d4b4ba88)">
      <path
         id="path76"
         fill-rule="nonzero"
         fill-opacity="1"
         d="M 268.332031 160.84375 L 268.332031 214.507812 C 268.332031 231.691406 224.449219 245.628906 170.367188 245.628906 C 116.246094 245.628906 72.367188 231.691406 72.367188 214.507812 L 72.367188 160.84375 C 72.367188 143.621094 116.246094 129.6875 170.367188 129.6875 C 224.449219 129.6875 268.332031 143.621094 268.332031 160.84375 Z M 268.332031 160.84375 "
         fill="#4f5d99" />
    </g>
    <g
       id="g82"
       clip-path="url(#8bf28a7c5e)">
      <path
         id="path80"
         fill-rule="nonzero"
         fill-opacity="1"
         d="M 268.332031 160.84375 C 268.332031 178.027344 224.449219 191.960938 170.367188 191.960938 C 116.246094 191.960938 72.367188 178.027344 72.367188 160.84375 C 72.367188 143.621094 116.246094 129.6875 170.367188 129.6875 C 224.449219 129.6875 268.332031 143.621094 268.332031 160.84375 Z M 268.332031 160.84375 "
         fill="#3d4a75" />
    </g>
    <g
       id="g86"
       clip-path="url(#7762ae82cc)">
      <path
         id="path84"
         fill-rule="nonzero"
         fill-opacity="1"
         d="M 72.367188 160.84375 C 72.367188 178.027344 116.246094 191.960938 170.367188 191.960938 C 224.449219 191.960938 268.332031 178.027344 268.332031 160.84375 L 268.332031 214.511719 C 268.332031 231.695312 224.449219 245.632812 170.367188 245.632812 C 116.246094 245.632812 72.367188 231.695312 72.367188 214.511719 Z M 72.367188 160.84375 "
         fill="#4f5d99" />
    </g>
    <path
       id="path88"
       fill-rule="nonzero"
       fill-opacity="1"
       d="M 134.484375 217.859375 C 134.484375 220.324219 132.320312 222.222656 129.855469 221.957031 C 108.445312 219.523438 94.285156 214.535156 88.730469 210.792969 C 87.753906 210.140625 87.21875 209.011719 87.21875 207.855469 C 87.21875 205.359375 89.652344 203.636719 91.96875 204.441406 C 103.519531 208.507812 116.96875 212.246094 130.746094 213.730469 C 132.851562 213.96875 134.484375 215.722656 134.484375 217.859375 Z M 134.484375 217.859375 "
       fill="#e9e9ff" />
    <path
       id="path90"
       fill-rule="nonzero"
       fill-opacity="1"
       d="M 256.226562 205.171875 C 256.226562 208.871094 253.21875 211.84375 249.519531 211.84375 C 245.820312 211.84375 242.8125 208.871094 242.8125 205.171875 C 242.8125 201.472656 245.820312 198.460938 249.519531 198.460938 C 253.21875 198.460938 256.226562 201.472656 256.226562 205.171875 Z M 256.226562 205.171875 "
       fill="#7bd681" />
    <path
       id="path92"
       fill-rule="nonzero"
       fill-opacity="1"
       d="M 233.246094 211.863281 C 233.246094 215.5625 230.238281 218.535156 226.539062 218.535156 C 222.839844 218.535156 219.832031 215.5625 219.832031 211.863281 C 219.832031 208.164062 222.839844 205.152344 226.539062 205.152344 C 230.238281 205.152344 233.246094 208.164062 233.246094 211.863281 Z M 233.246094 211.863281 "
       fill="#fdc72e" />
    <path
       id="path94"
       fill-rule="nonzero"
       fill-opacity="1"
       d="M 209.546875 215.308594 C 209.546875 219.007812 206.535156 221.980469 202.835938 221.980469 C 199.136719 221.980469 196.128906 219.007812 196.128906 215.308594 C 196.128906 211.609375 199.136719 208.601562 202.835938 208.601562 C 206.535156 208.601562 209.546875 211.609375 209.546875 215.308594 Z M 209.546875 215.308594 "
       fill="#ed524e" />
    <g
       id="g98"
       clip-path="url(#071f340911)">
      <path
         id="path96"
         fill-rule="nonzero"
         fill-opacity="1"
         d="M 268.332031 94.285156 L 268.332031 147.949219 C 268.332031 165.132812 224.449219 179.070312 170.367188 179.070312 C 116.246094 179.070312 72.367188 165.132812 72.367188 147.949219 L 72.367188 94.285156 C 72.367188 77.0625 116.246094 63.128906 170.367188 63.128906 C 224.449219 63.128906 268.332031 77.0625 268.332031 94.285156 Z M 268.332031 94.285156 "
         fill="#4f5d99" />
    </g>
    <g
       id="g102"
       clip-path="url(#feb575a753)">
      <path
         id="path100"
         fill-rule="nonzero"
         fill-opacity="1"
         d="M 268.332031 94.285156 C 268.332031 111.46875 224.449219 125.402344 170.367188 125.402344 C 116.246094 125.402344 72.367188 111.46875 72.367188 94.285156 C 72.367188 77.0625 116.246094 63.128906 170.367188 63.128906 C 224.449219 63.128906 268.332031 77.0625 268.332031 94.285156 Z M 268.332031 94.285156 "
         fill="#3d4a75" />
    </g>
    <g
       id="g106"
       clip-path="url(#08a4bcd384)">
      <path
         id="path104"
         fill-rule="nonzero"
         fill-opacity="1"
         d="M 72.367188 94.285156 C 72.367188 111.46875 116.246094 125.402344 170.367188 125.402344 C 224.449219 125.402344 268.332031 111.46875 268.332031 94.285156 L 268.332031 147.953125 C 268.332031 165.136719 224.449219 179.074219 170.367188 179.074219 C 116.246094 179.074219 72.367188 165.136719 72.367188 147.953125 Z M 72.367188 94.285156 "
         fill="#4f5d99" />
    </g>
    <path
       id="path108"
       fill-rule="nonzero"
       fill-opacity="1"
       d="M 134.484375 151.300781 C 134.484375 153.765625 132.320312 155.664062 129.855469 155.398438 C 108.445312 152.964844 94.285156 147.976562 88.730469 144.234375 C 87.753906 143.582031 87.21875 142.453125 87.21875 141.296875 C 87.21875 138.800781 89.652344 137.078125 91.96875 137.878906 C 103.519531 141.949219 116.96875 145.6875 130.746094 147.171875 C 132.851562 147.410156 134.484375 149.164062 134.484375 151.300781 Z M 134.484375 151.300781 "
       fill="#e9e9ff" />
    <path
       id="path110"
       fill-rule="nonzero"
       fill-opacity="1"
       d="M 256.226562 138.613281 C 256.226562 142.3125 253.21875 145.285156 249.519531 145.285156 C 245.820312 145.285156 242.8125 142.3125 242.8125 138.613281 C 242.8125 134.914062 245.820312 131.902344 249.519531 131.902344 C 253.21875 131.902344 256.226562 134.914062 256.226562 138.613281 Z M 256.226562 138.613281 "
       fill="#7bd681" />
    <path
       id="path112"
       fill-rule="nonzero"
       fill-opacity="1"
       d="M 233.246094 145.304688 C 233.246094 149.003906 230.238281 151.976562 226.539062 151.976562 C 222.839844 151.976562 219.832031 149.003906 219.832031 145.304688 C 219.832031 141.605469 222.839844 138.59375 226.539062 138.59375 C 230.238281 138.59375 233.246094 141.605469 233.246094 145.304688 Z M 233.246094 145.304688 "
       fill="#fdc72e" />
    <path
       id="path114"
       fill-rule="nonzero"
       fill-opacity="1"
       d="M 209.546875 148.75 C 209.546875 152.449219 206.535156 155.421875 202.835938 155.421875 C 199.136719 155.421875 196.128906 152.449219 196.128906 148.75 C 196.128906 145.050781 199.136719 142.042969 202.835938 142.042969 C 206.535156 142.042969 209.546875 145.050781 209.546875 148.75 Z M 209.546875 148.75 "
       fill="#ed524e" />
    <g
       id="g130"
       clip-path="url(#fc5c8ad35b)">
      <g
         id="g128"
         mask="url(#610bb107d2)">
        <g
           id="g126"
           transform="matrix(1, 0, 0, 1, 86, 63)">
          <g
             id="g124"
             clip-path="url(#bc3a4ebf43)">
            <g
               id="g118"
               clip-path="url(#b981cfd551)">
              <path
                 id="path116"
                 fill-rule="nonzero"
                 fill-opacity="1"
                 d="M 130.03125 245.621094 C 116.394531 247.925781 100.894531 249.207031 84.378906 249.207031 C 76.765625 249.207031 69.367188 248.941406 62.285156 248.410156 L 4.101562 13.433594 C 19.066406 6.613281 42.359375 1.832031 69.28125 0.503906 Z M 130.03125 245.621094 "
                 fill="#ffffff" />
            </g>
            <g
               id="g122"
               clip-path="url(#05b680e3b6)">
              <path
                 id="path120"
                 fill-rule="nonzero"
                 fill-opacity="1"
                 d="M 164.613281 235.925781 C 159.523438 238.226562 153.5 240.308594 146.726562 242.078125 L 86.816406 0.148438 C 93.546875 0.195312 100.097656 0.460938 106.429688 0.945312 Z M 164.613281 235.925781 "
                 fill="#ffffff" />
            </g>
          </g>
        </g>
      </g>
    </g>
    <g
       id="g134"
       clip-path="url(#11db1e01c9)">
      <path
         id="path132"
         fill-rule="nonzero"
         fill-opacity="1"
         d="M 317.613281 253.449219 L 304.75 250.050781 C 304.09375 247.902344 303.191406 245.789062 302.148438 243.8125 L 308.875 232.335938 C 309.292969 231.609375 309.1875 230.671875 308.5625 230.050781 L 299.792969 221.277344 C 299.167969 220.65625 298.234375 220.515625 297.46875 220.964844 L 285.996094 227.65625 C 284.640625 226.964844 283.257812 226.304688 281.800781 225.785156 C 281.105469 225.507812 280.449219 225.300781 279.753906 225.058594 L 276.390625 212.230469 C 276.148438 211.398438 275.421875 210.808594 274.554688 210.808594 L 262.109375 210.808594 C 261.242188 210.808594 260.480469 211.398438 260.269531 212.230469 L 259.855469 213.792969 L 259.300781 215.941406 L 256.90625 225.058594 C 254.722656 225.75 252.644531 226.617188 250.632812 227.65625 L 239.191406 220.964844 C 238.429688 220.515625 237.492188 220.65625 236.871094 221.277344 L 228.097656 230.050781 C 227.472656 230.671875 227.371094 231.609375 227.785156 232.335938 L 234.476562 243.8125 C 233.4375 245.789062 232.570312 247.902344 231.910156 250.085938 L 219.050781 253.449219 C 218.21875 253.65625 217.628906 254.421875 217.628906 255.285156 L 217.628906 267.695312 C 217.628906 268.597656 218.21875 269.328125 219.050781 269.535156 L 231.910156 272.933594 C 232.570312 275.082031 233.4375 277.195312 234.511719 279.171875 L 227.785156 290.644531 C 227.371094 291.375 227.472656 292.34375 228.097656 292.933594 L 236.871094 301.738281 C 237.492188 302.328125 238.429688 302.46875 239.191406 302.015625 L 250.632812 295.328125 C 252.019531 296.054688 253.40625 296.679688 254.863281 297.230469 C 255.519531 297.476562 256.214844 297.71875 256.90625 297.925781 L 260.269531 310.789062 C 260.480469 311.617188 261.242188 312.207031 262.109375 312.207031 L 274.554688 312.207031 C 275.421875 312.207031 276.148438 311.617188 276.390625 310.789062 L 279.753906 297.925781 C 281.9375 297.230469 284.019531 296.367188 285.996094 295.328125 L 286.03125 295.359375 L 287.625 296.296875 L 294.800781 300.457031 L 297.46875 302.015625 C 297.679688 302.15625 297.921875 302.226562 298.164062 302.292969 C 298.753906 302.363281 299.34375 302.15625 299.792969 301.738281 L 308.5625 292.933594 C 309.1875 292.34375 309.292969 291.375 308.875 290.644531 L 302.148438 279.171875 C 303.191406 277.195312 304.09375 275.082031 304.75 272.933594 L 317.613281 269.535156 C 318.445312 269.328125 319.035156 268.597656 319.035156 267.695312 L 319.035156 255.285156 C 319.035156 254.421875 318.445312 253.65625 317.613281 253.449219 Z M 268.3125 285.6875 C 254.96875 285.6875 244.113281 274.871094 244.113281 261.492188 C 244.113281 248.144531 254.96875 237.296875 268.3125 237.296875 C 281.660156 237.296875 292.511719 248.144531 292.511719 261.492188 C 292.511719 274.871094 281.660156 285.6875 268.3125 285.6875 Z M 268.3125 285.6875 "
         fill="#70c1f9" />
    </g>
    <path
       id="path136"
       fill-rule="nonzero"
       fill-opacity="1"
       d="M 292.511719 261.492188 C 292.511719 262.28125 292.472656 263.074219 292.394531 263.863281 C 292.316406 264.652344 292.203125 265.433594 292.046875 266.210938 C 291.894531 266.988281 291.699219 267.757812 291.46875 268.515625 C 291.242188 269.273438 290.972656 270.019531 290.671875 270.75 C 290.367188 271.484375 290.027344 272.199219 289.65625 272.898438 C 289.28125 273.597656 288.875 274.277344 288.433594 274.933594 C 287.992188 275.59375 287.523438 276.230469 287.019531 276.84375 C 286.515625 277.453125 285.984375 278.042969 285.425781 278.601562 C 284.863281 279.160156 284.277344 279.695312 283.664062 280.195312 C 283.050781 280.699219 282.417969 281.171875 281.757812 281.609375 C 281.097656 282.050781 280.417969 282.457031 279.71875 282.832031 C 279.019531 283.207031 278.304688 283.542969 277.574219 283.847656 C 276.839844 284.152344 276.097656 284.417969 275.335938 284.648438 C 274.578125 284.878906 273.8125 285.070312 273.035156 285.222656 C 272.257812 285.378906 271.472656 285.496094 270.683594 285.574219 C 269.894531 285.648438 269.105469 285.6875 268.3125 285.6875 C 267.519531 285.6875 266.730469 285.648438 265.941406 285.574219 C 265.152344 285.496094 264.367188 285.378906 263.589844 285.222656 C 262.8125 285.070312 262.046875 284.878906 261.289062 284.648438 C 260.527344 284.417969 259.785156 284.152344 259.050781 283.847656 C 258.320312 283.542969 257.601562 283.207031 256.90625 282.832031 C 256.207031 282.457031 255.527344 282.050781 254.867188 281.609375 C 254.207031 281.171875 253.574219 280.699219 252.960938 280.195312 C 252.347656 279.695312 251.761719 279.160156 251.199219 278.601562 C 250.640625 278.042969 250.109375 277.453125 249.605469 276.84375 C 249.101562 276.230469 248.632812 275.59375 248.191406 274.933594 C 247.75 274.277344 247.34375 273.597656 246.96875 272.898438 C 246.597656 272.199219 246.257812 271.484375 245.953125 270.75 C 245.652344 270.019531 245.382812 269.273438 245.152344 268.515625 C 244.925781 267.757812 244.730469 266.988281 244.578125 266.210938 C 244.421875 265.433594 244.304688 264.652344 244.230469 263.863281 C 244.152344 263.074219 244.113281 262.28125 244.113281 261.492188 C 244.113281 260.699219 244.152344 259.90625 244.230469 259.117188 C 244.304688 258.328125 244.421875 257.546875 244.578125 256.769531 C 244.730469 255.992188 244.925781 255.222656 245.152344 254.464844 C 245.382812 253.707031 245.652344 252.960938 245.953125 252.230469 C 246.257812 251.496094 246.597656 250.78125 246.96875 250.082031 C 247.34375 249.382812 247.75 248.707031 248.191406 248.046875 C 248.632812 247.386719 249.101562 246.75 249.605469 246.140625 C 250.109375 245.527344 250.640625 244.941406 251.199219 244.378906 C 251.761719 243.820312 252.347656 243.289062 252.960938 242.785156 C 253.574219 242.28125 254.207031 241.8125 254.867188 241.371094 C 255.527344 240.929688 256.207031 240.523438 256.90625 240.148438 C 257.601562 239.777344 258.320312 239.4375 259.050781 239.132812 C 259.785156 238.832031 260.527344 238.5625 261.289062 238.335938 C 262.046875 238.105469 262.8125 237.910156 263.589844 237.757812 C 264.367188 237.601562 265.152344 237.484375 265.941406 237.410156 C 266.730469 237.332031 267.519531 237.292969 268.3125 237.292969 C 269.105469 237.292969 269.894531 237.332031 270.683594 237.410156 C 271.472656 237.484375 272.257812 237.601562 273.035156 237.757812 C 273.8125 237.910156 274.578125 238.105469 275.335938 238.335938 C 276.097656 238.5625 276.839844 238.832031 277.574219 239.132812 C 278.304688 239.4375 279.019531 239.777344 279.71875 240.148438 C 280.417969 240.523438 281.097656 240.929688 281.757812 241.371094 C 282.417969 241.8125 283.050781 242.28125 283.664062 242.785156 C 284.277344 243.289062 284.863281 243.820312 285.425781 244.378906 C 285.984375 244.941406 286.515625 245.527344 287.019531 246.140625 C 287.523438 246.75 287.992188 247.386719 288.433594 248.046875 C 288.875 248.707031 289.28125 249.382812 289.65625 250.082031 C 290.027344 250.78125 290.367188 251.496094 290.671875 252.230469 C 290.972656 252.960938 291.242188 253.707031 291.46875 254.464844 C 291.699219 255.222656 291.894531 255.992188 292.046875 256.769531 C 292.203125 257.546875 292.316406 258.328125 292.394531 259.117188 C 292.472656 259.90625 292.511719 260.699219 292.511719 261.492188 Z M 292.511719 261.492188 "
       fill="#4f5d99" />
    <path
       id="path138"
       fill-rule="nonzero"
       fill-opacity="1"
       d="M 287.851562 261.492188 C 287.851562 262.128906 287.820312 262.769531 287.753906 263.40625 C 287.691406 264.042969 287.597656 264.675781 287.472656 265.300781 C 287.351562 265.929688 287.195312 266.550781 287.007812 267.160156 C 286.824219 267.773438 286.609375 268.375 286.363281 268.964844 C 286.117188 269.558594 285.84375 270.136719 285.542969 270.699219 C 285.242188 271.265625 284.914062 271.8125 284.558594 272.34375 C 284.203125 272.875 283.820312 273.390625 283.414062 273.882812 C 283.007812 274.378906 282.578125 274.851562 282.128906 275.304688 C 281.675781 275.757812 281.203125 276.1875 280.707031 276.59375 C 280.210938 277 279.699219 277.378906 279.167969 277.734375 C 278.632812 278.089844 278.085938 278.417969 277.523438 278.71875 C 276.957031 279.023438 276.378906 279.292969 275.789062 279.539062 C 275.199219 279.785156 274.597656 280 273.984375 280.1875 C 273.371094 280.371094 272.75 280.527344 272.125 280.652344 C 271.496094 280.777344 270.863281 280.871094 270.226562 280.933594 C 269.589844 280.996094 268.953125 281.027344 268.3125 281.027344 C 267.671875 281.027344 267.035156 280.996094 266.398438 280.933594 C 265.761719 280.871094 265.128906 280.777344 264.5 280.652344 C 263.875 280.527344 263.253906 280.371094 262.640625 280.1875 C 262.027344 280 261.425781 279.785156 260.835938 279.539062 C 260.246094 279.292969 259.667969 279.023438 259.101562 278.71875 C 258.539062 278.417969 257.988281 278.089844 257.457031 277.734375 C 256.925781 277.378906 256.414062 277 255.917969 276.59375 C 255.421875 276.1875 254.949219 275.757812 254.496094 275.304688 C 254.042969 274.851562 253.617188 274.378906 253.210938 273.882812 C 252.804688 273.390625 252.421875 272.875 252.066406 272.34375 C 251.710938 271.8125 251.382812 271.265625 251.082031 270.699219 C 250.78125 270.136719 250.507812 269.558594 250.261719 268.964844 C 250.015625 268.375 249.800781 267.773438 249.617188 267.160156 C 249.429688 266.550781 249.273438 265.929688 249.148438 265.300781 C 249.023438 264.675781 248.929688 264.042969 248.867188 263.40625 C 248.804688 262.769531 248.773438 262.128906 248.773438 261.492188 C 248.773438 260.851562 248.804688 260.210938 248.867188 259.574219 C 248.929688 258.9375 249.023438 258.308594 249.148438 257.679688 C 249.273438 257.050781 249.429688 256.433594 249.617188 255.820312 C 249.800781 255.207031 250.015625 254.605469 250.261719 254.015625 C 250.507812 253.421875 250.78125 252.84375 251.082031 252.28125 C 251.382812 251.71875 251.710938 251.167969 252.066406 250.636719 C 252.421875 250.105469 252.804688 249.589844 253.210938 249.097656 C 253.617188 248.601562 254.042969 248.128906 254.496094 247.675781 C 254.949219 247.222656 255.421875 246.792969 255.917969 246.390625 C 256.414062 245.984375 256.925781 245.601562 257.457031 245.246094 C 257.988281 244.890625 258.539062 244.5625 259.101562 244.261719 C 259.667969 243.960938 260.246094 243.6875 260.835938 243.441406 C 261.425781 243.195312 262.027344 242.980469 262.640625 242.796875 C 263.253906 242.609375 263.875 242.453125 264.5 242.328125 C 265.128906 242.203125 265.761719 242.109375 266.398438 242.046875 C 267.035156 241.984375 267.671875 241.953125 268.3125 241.953125 C 268.953125 241.953125 269.589844 241.984375 270.226562 242.046875 C 270.863281 242.109375 271.496094 242.203125 272.125 242.328125 C 272.75 242.453125 273.371094 242.609375 273.984375 242.796875 C 274.597656 242.980469 275.199219 243.195312 275.789062 243.441406 C 276.378906 243.6875 276.957031 243.960938 277.523438 244.261719 C 278.085938 244.5625 278.632812 244.890625 279.167969 245.246094 C 279.699219 245.601562 280.210938 245.984375 280.707031 246.390625 C 281.203125 246.792969 281.675781 247.222656 282.128906 247.675781 C 282.578125 248.128906 283.007812 248.601562 283.414062 249.097656 C 283.820312 249.589844 284.203125 250.105469 284.558594 250.636719 C 284.914062 251.167969 285.242188 251.71875 285.542969 252.28125 C 285.84375 252.84375 286.117188 253.421875 286.363281 254.015625 C 286.609375 254.605469 286.824219 255.207031 287.007812 255.820312 C 287.195312 256.433594 287.351562 257.050781 287.472656 257.679688 C 287.597656 258.308594 287.691406 258.9375 287.753906 259.574219 C 287.820312 260.210938 287.851562 260.851562 287.851562 261.492188 Z M 287.851562 261.492188 "
       fill="#e9e9ff" />
  </g>
</svg>
