<?xml version="1.0" encoding="UTF-8" standalone="no"?>
<svg
   xmlns:dc="http://purl.org/dc/elements/1.1/"
   xmlns:cc="http://creativecommons.org/ns#"
   xmlns:rdf="http://www.w3.org/1999/02/22-rdf-syntax-ns#"
   xmlns:svg="http://www.w3.org/2000/svg"
   xmlns="http://www.w3.org/2000/svg"
   xmlns:sodipodi="http://sodipodi.sourceforge.net/DTD/sodipodi-0.dtd"
   xmlns:inkscape="http://www.inkscape.org/namespaces/inkscape"
   width="500"
   zoomAndPan="magnify"
   viewBox="0 0 375 374.999991"
   height="500"
   preserveAspectRatio="xMidYMid meet"
   version="1.0"
   id="svg104"
   sodipodi:docname="control.svg"
   inkscape:version="0.92.5 (2060ec1f9f, 2020-04-08)">
  <metadata
     id="metadata108">
    <rdf:RDF>
      <cc:Work
         rdf:about="">
        <dc:format>image/svg+xml</dc:format>
        <dc:type
           rdf:resource="http://purl.org/dc/dcmitype/StillImage" />
      </cc:Work>
    </rdf:RDF>
  </metadata>
  <sodipodi:namedview
     pagecolor="#ffffff"
     bordercolor="#666666"
     borderopacity="1"
     objecttolerance="10"
     gridtolerance="10"
     guidetolerance="10"
     inkscape:pageopacity="0"
     inkscape:pageshadow="2"
     inkscape:window-width="1076"
     inkscape:window-height="645"
     id="namedview106"
     showgrid="false"
     inkscape:zoom="0.472"
     inkscape:cx="203.19839"
     inkscape:cy="165.25424"
     inkscape:window-x="1080"
     inkscape:window-y="1023"
     inkscape:window-maximized="0"
     inkscape:current-layer="svg104" />
  <defs
     id="defs20">
    <clipPath
       id="a563f5f703">
      <path
         d="M 247 233 L 303.8125 233 L 303.8125 287 L 247 287 Z M 247 233 "
         clip-rule="nonzero"
         id="path2" />
    </clipPath>
    <clipPath
       id="598593c656">
      <path
         d="M 247 73 L 303.8125 73 L 303.8125 127 L 247 127 Z M 247 73 "
         clip-rule="nonzero"
         id="path5" />
    </clipPath>
    <clipPath
       id="fbc9e2f016">
      <path
         d="M 247 153 L 303.8125 153 L 303.8125 207 L 247 207 Z M 247 153 "
         clip-rule="nonzero"
         id="path8" />
    </clipPath>
    <clipPath
       id="c93b7a5937">
      <path
         d="M 59.3125 233 L 116 233 L 116 287 L 59.3125 287 Z M 59.3125 233 "
         clip-rule="nonzero"
         id="path11" />
    </clipPath>
    <clipPath
       id="40201e40d2">
      <path
         d="M 59.3125 73 L 116 73 L 116 127 L 59.3125 127 Z M 59.3125 73 "
         clip-rule="nonzero"
         id="path14" />
    </clipPath>
    <clipPath
       id="d5bf0dc2ef">
      <path
         d="M 59.3125 153 L 116 153 L 116 207 L 59.3125 207 Z M 59.3125 153 "
         clip-rule="nonzero"
         id="path17" />
    </clipPath>
  </defs>
  <g
     id="g901">
    <path
       id="path26"
       fill-rule="nonzero"
       fill-opacity="1"
       d="M 233.078125 176.929688 L 251.945312 176.929688 L 251.945312 183.019531 L 233.078125 183.019531 C 231.421875 183.019531 230.042969 181.667969 230.042969 179.972656 C 230.042969 178.28125 231.421875 176.929688 233.078125 176.929688 Z M 233.078125 176.929688 "
       fill="#4f5d99" />
    <path
       id="path28"
       fill-rule="nonzero"
       fill-opacity="1"
       d="M 230.214844 97.070312 L 249.253906 97.070312 C 250.945312 97.070312 252.289062 98.453125 252.289062 100.148438 C 252.289062 101.808594 250.945312 103.191406 249.253906 103.191406 L 233.25 103.191406 L 233.253906 256.757812 L 249.253906 256.757812 C 250.945312 256.757812 252.289062 258.140625 252.289062 259.800781 C 252.289062 261.496094 250.945312 262.84375 249.253906 262.84375 L 230.214844 262.84375 C 228.527344 262.84375 227.179688 261.496094 227.179688 259.800781 L 227.179688 183.019531 L 196.855469 183.019531 C 195.199219 183.019531 193.820312 181.667969 193.820312 179.972656 C 193.820312 178.28125 195.199219 176.929688 196.855469 176.929688 L 227.179688 176.929688 L 227.179688 100.148438 C 227.179688 98.453125 228.523438 97.070312 230.214844 97.070312 Z M 230.214844 97.070312 "
       fill="#4f5d99" />
    <path
       id="path30"
       fill-rule="nonzero"
       fill-opacity="1"
       d="M 249.253906 256.757812 C 250.945312 256.757812 252.289062 258.140625 252.289062 259.800781 C 252.289062 261.496094 250.945312 262.84375 249.253906 262.84375 "
       fill="#4f5d99" />
    <g
       id="g34"
       clip-path="url(#a563f5f703)">
      <path
         id="path32"
         fill-rule="nonzero"
         fill-opacity="1"
         d="M 303.8125 238.308594 L 303.8125 281.265625 C 303.8125 284.167969 301.464844 286.519531 298.566406 286.519531 L 252.824219 286.519531 C 249.925781 286.519531 247.578125 284.167969 247.578125 281.261719 L 247.582031 238.308594 C 247.582031 235.402344 249.925781 233.085938 252.824219 233.085938 L 298.570312 233.085938 C 301.46875 233.085938 303.8125 235.402344 303.8125 238.308594 Z M 303.8125 238.308594 "
         fill="#7bd681" />
    </g>
    <g
       id="g38"
       clip-path="url(#598593c656)">
      <path
         id="path36"
         fill-rule="nonzero"
         fill-opacity="1"
         d="M 303.808594 78.636719 L 303.808594 121.59375 C 303.808594 124.496094 301.460938 126.847656 298.5625 126.847656 L 252.820312 126.851562 C 249.921875 126.851562 247.578125 124.496094 247.578125 121.59375 L 247.578125 78.636719 C 247.578125 75.730469 249.925781 73.414062 252.824219 73.414062 L 298.566406 73.414062 C 301.460938 73.414062 303.808594 75.730469 303.808594 78.636719 Z M 303.808594 78.636719 "
         fill="#ed524e" />
    </g>
    <g
       id="g42"
       clip-path="url(#fbc9e2f016)">
      <path
         id="path40"
         fill-rule="nonzero"
         fill-opacity="1"
         d="M 303.808594 158.464844 L 303.808594 201.417969 C 303.808594 204.324219 301.464844 206.675781 298.566406 206.675781 L 252.824219 206.675781 C 249.925781 206.675781 247.578125 204.324219 247.578125 201.421875 L 247.578125 158.464844 C 247.578125 155.558594 249.925781 153.242188 252.824219 153.242188 L 298.566406 153.238281 C 301.464844 153.238281 303.808594 155.558594 303.808594 158.464844 Z M 303.808594 158.464844 "
         fill="#fdc72e" />
    </g>
    <path
       id="path44"
       fill-rule="nonzero"
       fill-opacity="1"
       d="M 295.027344 85.566406 L 295.027344 88.992188 C 295.027344 89.476562 294.648438 89.859375 294.132812 89.859375 L 257.253906 89.859375 C 256.773438 89.859375 256.359375 89.476562 256.359375 88.992188 L 256.359375 85.570312 C 256.359375 85.085938 256.773438 84.671875 257.253906 84.671875 L 294.132812 84.667969 C 294.648438 84.667969 295.027344 85.085938 295.027344 85.566406 Z M 295.027344 85.566406 "
       fill="#e9e9ff" />
    <path
       id="path46"
       fill-rule="nonzero"
       fill-opacity="1"
       d="M 295.027344 98.433594 L 295.027344 101.859375 C 295.027344 102.34375 294.648438 102.726562 294.132812 102.726562 L 257.253906 102.726562 C 256.773438 102.726562 256.359375 102.34375 256.359375 101.859375 L 256.359375 98.4375 C 256.359375 97.953125 256.773438 97.539062 257.253906 97.539062 L 294.132812 97.535156 C 294.648438 97.535156 295.027344 97.953125 295.027344 98.433594 Z M 295.027344 98.433594 "
       fill="#e9e9ff" />
    <path
       id="path48"
       fill-rule="nonzero"
       fill-opacity="1"
       d="M 295.027344 111.304688 L 295.027344 114.726562 C 295.027344 115.210938 294.648438 115.59375 294.132812 115.59375 L 257.253906 115.59375 C 256.773438 115.59375 256.359375 115.210938 256.359375 114.726562 L 256.359375 111.304688 C 256.359375 110.820312 256.773438 110.40625 257.253906 110.40625 L 294.132812 110.40625 C 294.648438 110.40625 295.027344 110.820312 295.027344 111.304688 Z M 295.027344 111.304688 "
       fill="#e9e9ff" />
    <path
       id="path50"
       fill-rule="nonzero"
       fill-opacity="1"
       d="M 295.003906 165.394531 L 295.003906 168.820312 C 295.003906 169.304688 294.625 169.683594 294.109375 169.683594 L 257.230469 169.683594 C 256.75 169.683594 256.335938 169.304688 256.335938 168.820312 L 256.335938 165.394531 C 256.335938 164.914062 256.75 164.496094 257.230469 164.496094 L 294.109375 164.496094 C 294.625 164.496094 295.003906 164.914062 295.003906 165.394531 Z M 295.003906 165.394531 "
       fill="#e9e9ff" />
    <path
       id="path52"
       fill-rule="nonzero"
       fill-opacity="1"
       d="M 295.003906 178.261719 L 295.003906 181.6875 C 295.003906 182.171875 294.625 182.550781 294.109375 182.550781 L 257.230469 182.554688 C 256.75 182.554688 256.335938 182.171875 256.335938 181.6875 L 256.335938 178.261719 C 256.335938 177.78125 256.75 177.363281 257.230469 177.363281 L 294.109375 177.363281 C 294.625 177.363281 295.003906 177.78125 295.003906 178.261719 Z M 295.003906 178.261719 "
       fill="#e9e9ff" />
    <path
       id="path54"
       fill-rule="nonzero"
       fill-opacity="1"
       d="M 295.003906 191.128906 L 295.003906 194.554688 C 295.003906 195.039062 294.625 195.417969 294.109375 195.417969 L 257.230469 195.421875 C 256.75 195.421875 256.335938 195.039062 256.335938 194.554688 L 256.335938 191.128906 C 256.335938 190.648438 256.75 190.230469 257.230469 190.230469 L 294.109375 190.230469 C 294.625 190.230469 295.003906 190.648438 295.003906 191.128906 Z M 295.003906 191.128906 "
       fill="#e9e9ff" />
    <path
       id="path56"
       fill-rule="nonzero"
       fill-opacity="1"
       d="M 295 245.242188 L 295 248.664062 C 295 249.148438 294.621094 249.53125 294.105469 249.53125 L 257.226562 249.53125 C 256.742188 249.53125 256.328125 249.148438 256.328125 248.664062 L 256.328125 245.242188 C 256.328125 244.757812 256.742188 244.34375 257.226562 244.34375 L 294.105469 244.34375 C 294.621094 244.34375 295 244.757812 295 245.242188 Z M 295 245.242188 "
       fill="#e9e9ff" />
    <path
       id="path58"
       fill-rule="nonzero"
       fill-opacity="1"
       d="M 295 258.109375 L 295 261.53125 C 295 262.015625 294.621094 262.398438 294.105469 262.398438 L 257.226562 262.398438 C 256.742188 262.398438 256.328125 262.015625 256.328125 261.53125 L 256.328125 258.109375 C 256.328125 257.625 256.742188 257.210938 257.226562 257.210938 L 294.105469 257.210938 C 294.621094 257.210938 295 257.625 295 258.109375 Z M 295 258.109375 "
       fill="#e9e9ff" />
    <path
       id="path60"
       fill-rule="nonzero"
       fill-opacity="1"
       d="M 295 270.976562 L 295 274.398438 C 295 274.882812 294.621094 275.265625 294.105469 275.265625 L 257.222656 275.265625 C 256.742188 275.265625 256.328125 274.882812 256.328125 274.398438 L 256.328125 270.972656 C 256.328125 270.492188 256.742188 270.074219 257.226562 270.074219 L 294.105469 270.078125 C 294.621094 270.078125 295 270.492188 295 270.976562 Z M 295 270.976562 "
       fill="#e9e9ff" />
    <path
       id="path62"
       fill-rule="nonzero"
       fill-opacity="1"
       d="M 130.046875 176.929688 L 111.179688 176.929688 L 111.179688 183.019531 L 130.046875 183.019531 C 131.703125 183.019531 133.082031 181.667969 133.082031 179.972656 C 133.082031 178.28125 131.703125 176.929688 130.046875 176.929688 Z M 130.046875 176.929688 "
       fill="#4f5d99" />
    <path
       id="path64"
       fill-rule="nonzero"
       fill-opacity="1"
       d="M 132.910156 97.070312 L 113.871094 97.070312 C 112.179688 97.070312 110.835938 98.453125 110.835938 100.148438 C 110.835938 101.808594 112.179688 103.191406 113.871094 103.191406 L 129.875 103.191406 L 129.871094 256.757812 L 113.871094 256.757812 C 112.179688 256.757812 110.835938 258.140625 110.835938 259.800781 C 110.835938 261.496094 112.179688 262.84375 113.871094 262.84375 L 132.910156 262.84375 C 134.597656 262.84375 135.945312 261.496094 135.945312 259.800781 L 135.945312 183.019531 L 160.542969 183.019531 C 162.195312 183.019531 163.578125 181.667969 163.578125 179.972656 C 163.578125 178.28125 162.195312 176.929688 160.542969 176.929688 L 135.945312 176.929688 L 135.945312 100.148438 C 135.945312 98.453125 134.601562 97.070312 132.910156 97.070312 Z M 132.910156 97.070312 "
       fill="#4f5d99" />
    <path
       id="path66"
       fill-rule="nonzero"
       fill-opacity="1"
       d="M 113.871094 256.757812 C 112.179688 256.757812 110.835938 258.140625 110.835938 259.800781 C 110.835938 261.496094 112.179688 262.84375 113.871094 262.84375 "
       fill="#4f5d99" />
    <g
       id="g70"
       clip-path="url(#c93b7a5937)">
      <path
         id="path68"
         fill-rule="nonzero"
         fill-opacity="1"
         d="M 59.3125 238.308594 L 59.3125 281.265625 C 59.3125 284.167969 61.660156 286.519531 64.558594 286.519531 L 110.300781 286.519531 C 113.199219 286.519531 115.546875 284.167969 115.546875 281.261719 L 115.546875 238.308594 C 115.546875 235.402344 113.199219 233.085938 110.300781 233.085938 L 64.554688 233.085938 C 61.660156 233.085938 59.3125 235.402344 59.3125 238.308594 Z M 59.3125 238.308594 "
         fill="#7bd681" />
    </g>
    <g
       id="g74"
       clip-path="url(#40201e40d2)">
      <path
         id="path72"
         fill-rule="nonzero"
         fill-opacity="1"
         d="M 59.316406 78.636719 L 59.316406 121.59375 C 59.316406 124.496094 61.664062 126.847656 64.5625 126.847656 L 110.304688 126.851562 C 113.203125 126.851562 115.546875 124.496094 115.546875 121.59375 L 115.546875 78.636719 C 115.546875 75.730469 113.203125 73.414062 110.304688 73.414062 L 64.5625 73.414062 C 61.664062 73.414062 59.316406 75.730469 59.316406 78.636719 Z M 59.316406 78.636719 "
         fill="#ed524e" />
    </g>
    <g
       id="g78"
       clip-path="url(#d5bf0dc2ef)">
      <path
         id="path76"
         fill-rule="nonzero"
         fill-opacity="1"
         d="M 59.316406 158.464844 L 59.316406 201.417969 C 59.316406 204.324219 61.660156 206.675781 64.558594 206.675781 L 110.300781 206.675781 C 113.199219 206.675781 115.546875 204.324219 115.546875 201.421875 L 115.546875 158.464844 C 115.546875 155.558594 113.199219 153.242188 110.300781 153.242188 L 64.558594 153.238281 C 61.660156 153.238281 59.316406 155.558594 59.316406 158.464844 Z M 59.316406 158.464844 "
         fill="#fdc72e" />
    </g>
    <path
       id="path80"
       fill-rule="nonzero"
       fill-opacity="1"
       d="M 68.097656 85.566406 L 68.097656 88.992188 C 68.097656 89.476562 68.476562 89.859375 68.992188 89.859375 L 105.871094 89.859375 C 106.351562 89.859375 106.769531 89.476562 106.769531 88.992188 L 106.769531 85.570312 C 106.769531 85.085938 106.351562 84.671875 105.871094 84.671875 L 68.992188 84.667969 C 68.476562 84.667969 68.097656 85.085938 68.097656 85.566406 Z M 68.097656 85.566406 "
       fill="#e9e9ff" />
    <path
       id="path82"
       fill-rule="nonzero"
       fill-opacity="1"
       d="M 68.097656 98.433594 L 68.097656 101.859375 C 68.097656 102.34375 68.476562 102.726562 68.992188 102.726562 L 105.871094 102.726562 C 106.351562 102.726562 106.769531 102.34375 106.769531 101.859375 L 106.769531 98.4375 C 106.769531 97.953125 106.351562 97.539062 105.871094 97.539062 L 68.992188 97.535156 C 68.476562 97.535156 68.097656 97.953125 68.097656 98.433594 Z M 68.097656 98.433594 "
       fill="#e9e9ff" />
    <path
       id="path84"
       fill-rule="nonzero"
       fill-opacity="1"
       d="M 68.097656 111.304688 L 68.097656 114.726562 C 68.097656 115.210938 68.476562 115.59375 68.992188 115.59375 L 105.871094 115.59375 C 106.355469 115.59375 106.769531 115.210938 106.769531 114.726562 L 106.769531 111.304688 C 106.769531 110.820312 106.351562 110.40625 105.871094 110.40625 L 68.992188 110.40625 C 68.476562 110.40625 68.097656 110.820312 68.097656 111.304688 Z M 68.097656 111.304688 "
       fill="#e9e9ff" />
    <path
       id="path86"
       fill-rule="nonzero"
       fill-opacity="1"
       d="M 68.121094 165.394531 L 68.121094 168.820312 C 68.121094 169.304688 68.5 169.683594 69.015625 169.683594 L 105.894531 169.683594 C 106.375 169.683594 106.789062 169.304688 106.789062 168.820312 L 106.789062 165.394531 C 106.789062 164.914062 106.375 164.496094 105.894531 164.496094 L 69.015625 164.496094 C 68.5 164.496094 68.121094 164.914062 68.121094 165.394531 Z M 68.121094 165.394531 "
       fill="#e9e9ff" />
    <path
       id="path88"
       fill-rule="nonzero"
       fill-opacity="1"
       d="M 68.121094 178.261719 L 68.121094 181.6875 C 68.121094 182.171875 68.5 182.550781 69.015625 182.550781 L 105.894531 182.554688 C 106.375 182.554688 106.792969 182.171875 106.792969 181.6875 L 106.792969 178.261719 C 106.789062 177.78125 106.375 177.363281 105.894531 177.363281 L 69.015625 177.363281 C 68.5 177.363281 68.121094 177.78125 68.121094 178.261719 Z M 68.121094 178.261719 "
       fill="#e9e9ff" />
    <path
       id="path90"
       fill-rule="nonzero"
       fill-opacity="1"
       d="M 68.121094 191.128906 L 68.121094 194.554688 C 68.121094 195.039062 68.5 195.417969 69.015625 195.417969 L 105.894531 195.421875 C 106.375 195.421875 106.792969 195.039062 106.792969 194.554688 L 106.792969 191.128906 C 106.792969 190.648438 106.375 190.230469 105.894531 190.230469 L 69.015625 190.230469 C 68.5 190.230469 68.121094 190.648438 68.121094 191.128906 Z M 68.121094 191.128906 "
       fill="#e9e9ff" />
    <path
       id="path92"
       fill-rule="nonzero"
       fill-opacity="1"
       d="M 68.125 245.242188 L 68.125 248.664062 C 68.125 249.148438 68.503906 249.53125 69.019531 249.53125 L 105.898438 249.53125 C 106.382812 249.53125 106.796875 249.148438 106.796875 248.664062 L 106.796875 245.242188 C 106.796875 244.757812 106.382812 244.34375 105.898438 244.34375 L 69.019531 244.34375 C 68.503906 244.34375 68.125 244.757812 68.125 245.242188 Z M 68.125 245.242188 "
       fill="#e9e9ff" />
    <path
       id="path94"
       fill-rule="nonzero"
       fill-opacity="1"
       d="M 68.125 258.109375 L 68.125 261.53125 C 68.125 262.015625 68.503906 262.398438 69.023438 262.398438 L 105.902344 262.398438 C 106.382812 262.398438 106.796875 262.015625 106.796875 261.53125 L 106.796875 258.109375 C 106.796875 257.625 106.382812 257.210938 105.902344 257.210938 L 69.019531 257.210938 C 68.503906 257.210938 68.125 257.625 68.125 258.109375 Z M 68.125 258.109375 "
       fill="#e9e9ff" />
    <path
       id="path96"
       fill-rule="nonzero"
       fill-opacity="1"
       d="M 68.125 270.976562 L 68.125 274.398438 C 68.125 274.882812 68.503906 275.265625 69.023438 275.265625 L 105.902344 275.265625 C 106.382812 275.265625 106.796875 274.882812 106.796875 274.398438 L 106.796875 270.972656 C 106.796875 270.492188 106.382812 270.074219 105.902344 270.074219 L 69.023438 270.078125 C 68.503906 270.078125 68.125 270.492188 68.125 270.976562 Z M 68.125 270.976562 "
       fill="#e9e9ff" />
    <path
       id="path98"
       fill-rule="nonzero"
       fill-opacity="1"
       d="M 231.804688 171.726562 L 218.691406 168.257812 C 218.019531 166.058594 217.101562 163.898438 216.039062 161.878906 L 222.894531 150.148438 C 223.320312 149.402344 223.214844 148.449219 222.578125 147.808594 L 213.636719 138.84375 C 213 138.207031 212.046875 138.066406 211.269531 138.527344 L 199.570312 145.363281 C 198.191406 144.65625 196.777344 143.984375 195.292969 143.453125 C 194.585938 143.167969 193.914062 142.953125 193.207031 142.707031 L 189.78125 129.597656 C 189.53125 128.746094 188.789062 128.144531 187.90625 128.144531 L 175.21875 128.144531 C 174.335938 128.144531 173.558594 128.746094 173.34375 129.597656 L 172.921875 131.191406 L 172.355469 133.386719 L 169.917969 142.707031 C 167.691406 143.414062 165.570312 144.300781 163.519531 145.363281 L 151.855469 138.527344 C 151.078125 138.066406 150.125 138.207031 149.488281 138.84375 L 143.726562 144.621094 L 140.546875 147.808594 C 139.910156 148.449219 139.804688 149.402344 140.226562 150.148438 L 147.050781 161.878906 C 145.988281 163.898438 145.105469 166.058594 144.433594 168.292969 L 131.320312 171.726562 C 130.472656 171.941406 129.871094 172.722656 129.871094 173.605469 L 129.871094 186.292969 C 129.871094 187.214844 130.472656 187.957031 131.320312 188.171875 L 144.433594 191.644531 C 145.105469 193.839844 145.988281 196 147.085938 198.019531 L 140.226562 209.75 C 139.804688 210.492188 139.910156 211.488281 140.546875 212.089844 L 149.488281 221.089844 C 150.125 221.691406 151.078125 221.832031 151.855469 221.371094 L 163.519531 214.535156 C 164.933594 215.277344 166.347656 215.914062 167.832031 216.480469 C 168.503906 216.730469 169.210938 216.980469 169.917969 217.191406 L 173.34375 230.339844 C 173.558594 231.1875 174.335938 231.789062 175.21875 231.789062 L 187.90625 231.789062 C 188.789062 231.789062 189.53125 231.1875 189.78125 230.339844 L 193.207031 217.191406 C 195.433594 216.480469 197.554688 215.597656 199.570312 214.535156 L 199.605469 214.570312 L 201.230469 215.527344 L 208.546875 219.777344 L 211.269531 221.371094 C 211.480469 221.515625 211.726562 221.585938 211.976562 221.65625 C 212.578125 221.726562 213.175781 221.515625 213.636719 221.089844 L 222.578125 212.089844 C 223.214844 211.488281 223.320312 210.492188 222.894531 209.75 L 216.039062 198.019531 C 217.101562 196 218.019531 193.839844 218.691406 191.644531 L 231.804688 188.171875 C 232.652344 187.957031 233.253906 187.214844 233.253906 186.292969 L 233.253906 173.605469 C 233.253906 172.722656 232.652344 171.941406 231.804688 171.726562 Z M 181.542969 204.683594 C 167.9375 204.683594 156.875 193.628906 156.875 179.949219 C 156.875 166.308594 167.9375 155.214844 181.542969 155.214844 C 195.152344 155.214844 206.214844 166.308594 206.214844 179.949219 C 206.214844 193.628906 195.152344 204.683594 181.542969 204.683594 Z M 181.542969 204.683594 "
       fill="#70c1f9" />
    <path
       id="path100"
       fill-rule="nonzero"
       fill-opacity="1"
       d="M 206.214844 179.949219 C 206.214844 180.757812 206.175781 181.566406 206.097656 182.371094 C 206.015625 183.179688 205.898438 183.980469 205.742188 184.773438 C 205.582031 185.566406 205.386719 186.351562 205.152344 187.128906 C 204.917969 187.902344 204.644531 188.664062 204.335938 189.414062 C 204.027344 190.160156 203.683594 190.894531 203.300781 191.609375 C 202.921875 192.324219 202.507812 193.015625 202.058594 193.691406 C 201.609375 194.363281 201.128906 195.011719 200.613281 195.640625 C 200.101562 196.265625 199.558594 196.867188 198.988281 197.4375 C 198.417969 198.011719 197.820312 198.554688 197.195312 199.070312 C 196.570312 199.582031 195.921875 200.0625 195.25 200.515625 C 194.578125 200.964844 193.886719 201.378906 193.171875 201.761719 C 192.460938 202.144531 191.730469 202.492188 190.984375 202.800781 C 190.238281 203.109375 189.480469 203.382812 188.707031 203.617188 C 187.933594 203.851562 187.148438 204.050781 186.355469 204.207031 C 185.5625 204.367188 184.765625 204.484375 183.960938 204.5625 C 183.15625 204.644531 182.351562 204.683594 181.542969 204.683594 C 180.734375 204.683594 179.929688 204.644531 179.125 204.5625 C 178.320312 204.484375 177.523438 204.367188 176.730469 204.207031 C 175.9375 204.050781 175.15625 203.851562 174.382812 203.617188 C 173.609375 203.382812 172.847656 203.109375 172.101562 202.800781 C 171.355469 202.492188 170.625 202.144531 169.914062 201.761719 C 169.199219 201.378906 168.507812 200.964844 167.835938 200.515625 C 167.164062 200.0625 166.515625 199.582031 165.890625 199.070312 C 165.265625 198.554688 164.667969 198.011719 164.097656 197.4375 C 163.527344 196.867188 162.984375 196.265625 162.472656 195.640625 C 161.960938 195.011719 161.480469 194.363281 161.03125 193.691406 C 160.582031 193.015625 160.167969 192.324219 159.785156 191.609375 C 159.40625 190.894531 159.058594 190.160156 158.75 189.414062 C 158.441406 188.664062 158.167969 187.902344 157.933594 187.128906 C 157.699219 186.351562 157.503906 185.566406 157.347656 184.773438 C 157.1875 183.980469 157.070312 183.179688 156.992188 182.371094 C 156.910156 181.566406 156.871094 180.757812 156.871094 179.949219 C 156.871094 179.136719 156.910156 178.328125 156.992188 177.523438 C 157.070312 176.71875 157.1875 175.917969 157.347656 175.121094 C 157.503906 174.328125 157.699219 173.542969 157.933594 172.765625 C 158.167969 171.992188 158.441406 171.230469 158.75 170.480469 C 159.058594 169.734375 159.40625 169.003906 159.785156 168.289062 C 160.167969 167.574219 160.582031 166.878906 161.03125 166.207031 C 161.480469 165.53125 161.960938 164.882812 162.472656 164.253906 C 162.984375 163.628906 163.527344 163.03125 164.097656 162.457031 C 164.667969 161.882812 165.265625 161.339844 165.890625 160.828125 C 166.515625 160.3125 167.164062 159.832031 167.835938 159.382812 C 168.507812 158.929688 169.199219 158.515625 169.914062 158.132812 C 170.625 157.75 171.355469 157.40625 172.101562 157.09375 C 172.847656 156.785156 173.609375 156.511719 174.382812 156.277344 C 175.15625 156.042969 175.9375 155.84375 176.730469 155.6875 C 177.523438 155.53125 178.320312 155.410156 179.125 155.332031 C 179.929688 155.253906 180.734375 155.210938 181.542969 155.210938 C 182.351562 155.210938 183.15625 155.253906 183.960938 155.332031 C 184.765625 155.410156 185.5625 155.53125 186.355469 155.6875 C 187.148438 155.84375 187.933594 156.042969 188.707031 156.277344 C 189.480469 156.511719 190.238281 156.785156 190.984375 157.09375 C 191.730469 157.40625 192.460938 157.75 193.171875 158.132812 C 193.886719 158.515625 194.578125 158.929688 195.25 159.382812 C 195.921875 159.832031 196.570312 160.3125 197.195312 160.828125 C 197.820312 161.339844 198.417969 161.882812 198.988281 162.457031 C 199.558594 163.03125 200.101562 163.628906 200.613281 164.253906 C 201.128906 164.882812 201.609375 165.53125 202.058594 166.207031 C 202.507812 166.878906 202.921875 167.574219 203.300781 168.289062 C 203.683594 169.003906 204.027344 169.734375 204.335938 170.480469 C 204.644531 171.230469 204.917969 171.992188 205.152344 172.765625 C 205.386719 173.542969 205.582031 174.328125 205.742188 175.121094 C 205.898438 175.917969 206.015625 176.71875 206.097656 177.523438 C 206.175781 178.328125 206.214844 179.136719 206.214844 179.949219 Z M 206.214844 179.949219 "
       fill="#4f5d99" />
    <path
       id="path102"
       fill-rule="nonzero"
       fill-opacity="1"
       d="M 201.457031 179.949219 C 201.457031 180.601562 201.425781 181.253906 201.363281 181.90625 C 201.300781 182.554688 201.203125 183.203125 201.078125 183.84375 C 200.949219 184.484375 200.789062 185.117188 200.601562 185.742188 C 200.410156 186.371094 200.191406 186.984375 199.941406 187.589844 C 199.691406 188.191406 199.414062 188.785156 199.105469 189.359375 C 198.800781 189.9375 198.464844 190.496094 198.101562 191.039062 C 197.738281 191.585938 197.351562 192.109375 196.9375 192.613281 C 196.523438 193.121094 196.085938 193.605469 195.625 194.066406 C 195.164062 194.527344 194.683594 194.96875 194.179688 195.382812 C 193.671875 195.796875 193.148438 196.1875 192.609375 196.550781 C 192.066406 196.914062 191.507812 197.25 190.929688 197.558594 C 190.355469 197.863281 189.765625 198.144531 189.164062 198.394531 C 188.5625 198.644531 187.949219 198.863281 187.324219 199.054688 C 186.699219 199.246094 186.070312 199.402344 185.429688 199.53125 C 184.789062 199.660156 184.144531 199.753906 183.496094 199.820312 C 182.847656 199.882812 182.195312 199.914062 181.542969 199.914062 C 180.890625 199.914062 180.242188 199.882812 179.589844 199.820312 C 178.941406 199.753906 178.296875 199.660156 177.660156 199.53125 C 177.019531 199.402344 176.386719 199.246094 175.761719 199.054688 C 175.136719 198.863281 174.523438 198.644531 173.921875 198.394531 C 173.320312 198.144531 172.730469 197.863281 172.15625 197.558594 C 171.582031 197.25 171.023438 196.914062 170.480469 196.550781 C 169.9375 196.1875 169.414062 195.796875 168.910156 195.382812 C 168.40625 194.96875 167.921875 194.527344 167.460938 194.066406 C 167 193.605469 166.5625 193.121094 166.148438 192.613281 C 165.734375 192.109375 165.347656 191.585938 164.984375 191.039062 C 164.621094 190.496094 164.289062 189.9375 163.980469 189.359375 C 163.671875 188.785156 163.394531 188.191406 163.144531 187.589844 C 162.894531 186.984375 162.675781 186.371094 162.484375 185.742188 C 162.296875 185.117188 162.136719 184.484375 162.011719 183.84375 C 161.882812 183.203125 161.789062 182.554688 161.722656 181.90625 C 161.660156 181.253906 161.628906 180.601562 161.628906 179.949219 C 161.628906 179.292969 161.660156 178.640625 161.722656 177.992188 C 161.789062 177.339844 161.882812 176.695312 162.011719 176.050781 C 162.136719 175.410156 162.296875 174.777344 162.484375 174.152344 C 162.675781 173.527344 162.894531 172.910156 163.144531 172.308594 C 163.394531 171.703125 163.671875 171.113281 163.980469 170.535156 C 164.289062 169.957031 164.621094 169.398438 164.984375 168.855469 C 165.347656 168.3125 165.734375 167.785156 166.148438 167.28125 C 166.5625 166.777344 167 166.292969 167.460938 165.828125 C 167.921875 165.367188 168.40625 164.929688 168.910156 164.511719 C 169.414062 164.097656 169.9375 163.710938 170.480469 163.347656 C 171.023438 162.984375 171.582031 162.648438 172.15625 162.339844 C 172.730469 162.03125 173.320312 161.75 173.921875 161.5 C 174.523438 161.25 175.136719 161.03125 175.761719 160.839844 C 176.386719 160.652344 177.019531 160.492188 177.660156 160.363281 C 178.296875 160.238281 178.941406 160.140625 179.589844 160.078125 C 180.242188 160.011719 180.890625 159.980469 181.542969 159.980469 C 182.195312 159.980469 182.847656 160.011719 183.496094 160.078125 C 184.144531 160.140625 184.789062 160.238281 185.429688 160.363281 C 186.070312 160.492188 186.699219 160.652344 187.324219 160.839844 C 187.949219 161.03125 188.5625 161.25 189.164062 161.5 C 189.765625 161.75 190.355469 162.03125 190.929688 162.339844 C 191.507812 162.648438 192.066406 162.984375 192.609375 163.347656 C 193.148438 163.710938 193.671875 164.097656 194.179688 164.511719 C 194.683594 164.929688 195.164062 165.367188 195.625 165.828125 C 196.085938 166.292969 196.523438 166.777344 196.9375 167.28125 C 197.351562 167.785156 197.738281 168.3125 198.101562 168.855469 C 198.464844 169.398438 198.800781 169.957031 199.105469 170.535156 C 199.414062 171.113281 199.691406 171.703125 199.941406 172.308594 C 200.191406 172.910156 200.410156 173.527344 200.601562 174.152344 C 200.789062 174.777344 200.949219 175.410156 201.078125 176.050781 C 201.203125 176.695312 201.300781 177.339844 201.363281 177.992188 C 201.425781 178.640625 201.457031 179.292969 201.457031 179.949219 Z M 201.457031 179.949219 "
       fill="#e9e9ff" />
  </g>
</svg>
