<?xml version="1.0" encoding="UTF-8"?><svg id="Layer_1" xmlns="http://www.w3.org/2000/svg" viewBox="0 0 2000 345.02"><defs><style>.cls-1{fill:#ff4a1f;}.cls-2{fill:#faf7f5;}</style></defs><g><path class="cls-2" d="m598.84,322.18c-29.14,0-55.47-6.72-79-20.17-23.53-13.45-41.96-31.73-55.26-54.84-13.31-23.11-19.96-48.53-19.96-76.27s6.65-53.16,19.96-76.27c13.3-23.11,31.73-41.39,55.26-54.84,23.53-13.45,49.86-20.17,79-20.17s55.47,6.72,79,20.17c23.53,13.45,41.95,31.73,55.26,54.84,13.3,23.11,19.96,48.53,19.96,76.27s-6.66,53.16-19.96,76.27c-13.31,23.11-31.73,41.39-55.26,54.84-23.53,13.45-49.87,20.17-79,20.17Zm0-67.23c14.85,0,28.43-3.78,40.76-11.35,12.32-7.56,22.13-17.79,29.42-30.68,7.28-12.88,10.93-26.89,10.93-42.02s-3.64-29.13-10.93-42.02c-7.29-12.88-17.09-23.11-29.42-30.68-12.33-7.56-25.92-11.35-40.76-11.35s-28.44,3.78-40.76,11.35c-12.33,7.56-22.13,17.79-29.42,30.68-7.29,12.89-10.93,26.89-10.93,42.02s3.64,29.14,10.93,42.02c7.28,12.89,17.08,23.11,29.42,30.68,12.32,7.56,25.91,11.35,40.76,11.35Z"/><path class="cls-2" d="m778.44,23.83h136.57c21.57,0,40.83,4.69,57.78,14.08,16.95,9.39,30.11,22.55,39.5,39.5,9.38,16.95,14.08,36.21,14.08,57.78v182.79h-67.23v-175.65c0-10.09-2.17-19.19-6.51-27.31-4.35-8.12-10.37-14.5-18.07-19.12-7.71-4.62-16.32-6.93-25.84-6.93h-63.03v229.02h-67.23V23.83Z"/><path class="cls-2" d="m1056.97,23.83h112.62c26.05,0,50.35,6.59,72.91,19.75,22.55,13.17,40.55,31.03,54,53.58,13.45,22.55,20.17,47.14,20.17,73.75s-6.72,51.2-20.17,73.75c-13.45,22.55-31.45,40.41-54,53.58-22.55,13.17-46.85,19.75-72.91,19.75h-112.62V23.83Zm93.29,60.93c-14.39,0-26.05,11.66-26.05,26.05v120.18c0,14.39,11.66,26.05,26.05,26.05h14.71c14.85,0,28.36-3.78,40.55-11.34,12.19-7.56,21.71-17.86,28.57-30.89,6.86-13.03,10.3-27.66,10.3-43.91s-3.43-30.89-10.3-43.91c-6.87-13.03-16.39-23.32-28.57-30.89-12.19-7.56-25.71-11.34-40.55-11.34h-14.71Z"/><path class="cls-2" d="m1338.24,252.84h111.36c9.8,0,17.5-2.45,23.11-7.35,5.6-4.9,8.4-11.27,8.4-19.12s-2.8-14.14-8.4-18.91c-5.61-4.76-13.31-7.14-23.11-7.14h-25.14c-17.37,0-33.2-3.57-47.48-10.72-14.29-7.14-25.57-17.37-33.83-30.68-8.27-13.3-12.4-28.5-12.4-45.59s4.13-33.26,12.4-46.85c8.26-13.58,19.54-24.09,33.83-31.52,14.29-7.42,30.11-11.14,47.48-11.14h113.04v65.13h-108.84c-8.97,0-15.97,2.25-21.01,6.72-5.04,4.48-7.56,10.23-7.56,17.23s2.59,12.82,7.77,17.44c5.18,4.62,12.11,6.93,20.8,6.93h27.24c49.9,0,90.35,40.45,90.35,90.35h0c0,49.9-40.45,90.35-90.35,90.35h-117.66v-65.13Z"/><path class="cls-2" d="m1570.79,23.83h186.16v65.13h-118.92v48.33h97.91v65.13h-97.91v50.43h118.92v65.13h-186.16V23.83Z"/><path class="cls-2" d="m1786.53,23.83h67.23v202.97c0,14.39,11.66,26.05,26.05,26.05h120.18v65.13h-213.47V23.83Z"/></g><path class="cls-1" d="m178.23.09C78.59-3.15-3.15,78.6.09,178.23c2.94,90.39,76.3,163.75,166.7,166.69,99.63,3.24,181.38-78.5,178.13-178.14C341.98,76.39,268.62,3.03,178.23.09ZM30.43,172.51c0-57.25,34.05-106.7,82.95-129.17,3.02-1.39,6.59-.76,8.94,1.59l23.13,23.13c3.09,3.09,3.09,8.1,0,11.19l-87.67,87.67c-3.09,3.09-3.09,8.1,0,11.19l87.67,87.67c3.09,3.09,3.09,8.1,0,11.19l-23.13,23.13c-2.35,2.35-5.92,2.98-8.94,1.59-48.91-22.48-82.95-71.92-82.95-129.17Zm180.73,38.65h0c-21.34,21.34-55.95,21.34-77.29,0h0c-21.34-21.34-21.34-55.95,0-77.29h0c21.34-21.34,55.95-21.34,77.29,0h0c21.34,21.34,21.34,55.95,0,77.29Zm-38.65,103.43c-5.22,0-10.37-.29-15.44-.84-1.95-.21-2.8-2.58-1.41-3.97l131.68-131.68c3.09-3.09,3.09-8.1,0-11.19L155.66,35.24c-1.39-1.39-.54-3.76,1.41-3.97,5.07-.55,10.22-.84,15.44-.84,78.34,0,142.08,63.74,142.08,142.08s-63.74,142.08-142.08,142.08Z"/></svg>